<svg width="1311" height="365" viewBox="0 0 1311 365" fill="none" xmlns="http://www.w3.org/2000/svg">
<g clip-path="url(#clip0_1136_84)">
<rect width="1311" height="365" rx="20" fill="url(#paint0_linear_1136_84)" fill-opacity="0.5"/>
<g opacity="0.12">
<mask id="mask0_1136_84" style="mask-type:luminance" maskUnits="userSpaceOnUse" x="699" y="9" width="778" height="474">
<path d="M1476.94 9.56346C1465.66 11.3614 1453.63 12.6946 1440.78 13.4623C1256.55 24.4613 1225.88 96.8222 1192.82 174.824C1187.1 188.331 1181.3 202.007 1174.61 215.583C1151.96 261.576 1127.25 304.867 1087.64 327.209C1048.01 349.556 993.52 350.931 911.339 313.066C829.328 275.281 775.766 266.454 743.148 291.752C710.516 317.062 698.778 376.55 700.425 475.383C700.468 477.936 700.492 480.467 700.501 482.98L700.02 482.98C700.012 480.47 699.988 477.942 699.945 475.391C698.295 376.398 710.085 316.79 742.855 291.374C775.639 265.946 829.354 274.764 911.541 312.63C993.557 350.418 1047.91 349.065 1087.4 326.792C1126.9 304.514 1151.57 261.294 1174.18 215.372C1180.85 201.83 1186.65 188.148 1192.38 174.636C1225.5 96.4928 1256.22 24 1440.75 12.9829C1453.62 12.2147 1465.65 10.8801 1476.94 9.07812L1476.94 9.56346L1476.94 9.56346Z" fill="white"/>
</mask>
<g mask="url(#mask0_1136_84)">
<path d="M1476.94 482.979L1476.94 9.07812L698.295 9.07809L698.295 482.979L1476.94 482.979Z" fill="url(#paint1_linear_1136_84)"/>
</g>
<mask id="mask1_1136_84" style="mask-type:luminance" maskUnits="userSpaceOnUse" x="699" y="6" width="778" height="477">
<path d="M1476.94 6.69509C1467.59 7.84738 1457.75 8.67633 1447.39 9.13572C1263.01 17.2986 1231.23 89.1796 1196.97 166.664C1191.04 180.082 1185.03 193.669 1178.14 207.138C1154.78 252.777 1129.4 295.683 1089.45 317.413C1049.49 339.147 994.981 339.682 913.391 300.558C831.973 261.515 778.554 251.865 745.55 276.66C712.531 301.464 699.877 360.764 700.002 459.611C700.012 467.605 699.857 475.399 699.548 482.992L699.067 482.992C699.376 475.4 699.531 467.606 699.521 459.612C699.397 360.606 712.105 301.186 745.261 276.277C778.433 251.357 832.006 260.999 913.599 300.126C995.023 339.171 1049.39 338.654 1089.22 316.992C1129.06 295.324 1154.39 252.488 1177.71 206.92C1184.59 193.481 1190.6 179.89 1196.53 166.469C1230.85 88.8444 1262.69 16.8332 1447.36 8.65658C1457.74 8.19719 1467.58 7.36573 1476.94 6.21094L1476.94 6.69509L1476.94 6.69509Z" fill="white"/>
</mask>
<g mask="url(#mask1_1136_84)">
<path d="M1476.94 482.992L1476.94 6.21094L699.067 6.2109L699.067 482.992L1476.94 482.992Z" fill="url(#paint2_linear_1136_84)"/>
</g>
<mask id="mask2_1136_84" style="mask-type:luminance" maskUnits="userSpaceOnUse" x="697" y="2" width="780" height="481">
<path d="M1476.94 3.47436C1469.55 4.13144 1461.89 4.60874 1453.89 4.83988C1269.41 10.165 1236.53 81.5485 1201.08 158.495C1194.94 171.828 1188.72 185.329 1181.62 198.676C1157.56 243.95 1131.53 286.459 1091.25 307.572C1050.95 328.689 996.445 328.386 915.469 288.012C834.662 247.721 781.397 237.251 748.016 261.533C714.619 285.827 701.052 344.925 699.652 443.762C699.459 457.434 698.798 470.522 697.699 482.989L697.219 482.989C698.318 470.522 698.979 457.433 699.173 443.756C700.575 344.759 714.196 285.542 747.733 261.146C781.285 236.74 834.703 247.205 915.684 287.583C996.497 327.876 1050.86 328.196 1091.02 307.148C1131.19 286.096 1157.18 243.655 1181.2 198.45C1188.29 185.104 1194.51 171.616 1200.64 158.295C1236.16 81.2083 1269.1 9.69388 1453.88 4.36021C1461.88 4.12907 1469.54 3.65085 1476.94 2.99219L1476.94 3.47436L1476.94 3.47436Z" fill="white"/>
</mask>
<g mask="url(#mask2_1136_84)">
<path d="M1476.94 482.989L1476.94 2.99219L697.218 2.99215L697.218 482.989L1476.94 482.989Z" fill="url(#paint3_linear_1136_84)"/>
</g>
<mask id="mask3_1136_84" style="mask-type:luminance" maskUnits="userSpaceOnUse" x="694" y="-1" width="783" height="484">
<path d="M1476.94 0.00376818C1471.53 0.305242 1466.01 0.522423 1460.29 0.599075C1275.75 3.08554 1241.77 73.9549 1205.14 150.348C1198.79 163.586 1192.37 176.991 1185.07 190.225C1160.32 235.122 1133.63 277.226 1093.02 297.717C1052.41 318.211 997.914 317.07 917.571 275.454C837.394 233.924 784.298 222.636 750.545 246.402C716.778 270.179 702.302 329.062 699.379 427.865C698.798 447.502 697.272 465.918 694.888 482.999L694.404 482.999C696.79 465.917 698.317 447.497 698.898 427.852C701.827 328.889 716.359 269.888 750.268 246.011C784.192 222.123 837.442 233.409 917.792 275.028C997.974 316.56 1052.33 317.717 1092.81 297.289C1133.29 276.859 1159.93 234.822 1184.65 189.992C1191.95 176.753 1198.37 163.363 1204.71 150.139C1241.41 73.6081 1275.45 2.61021 1460.29 0.119802C1466 0.0426224 1471.53 -0.175089 1476.94 -0.476562L1476.94 0.00376818V0.00376818Z" fill="white"/>
</mask>
<g mask="url(#mask3_1136_84)">
<path d="M1476.94 482.998L1476.94 -0.476562L694.404 -0.476597L694.404 482.998L1476.94 482.998Z" fill="url(#paint4_linear_1136_84)"/>
</g>
<mask id="mask4_1136_84" style="mask-type:luminance" maskUnits="userSpaceOnUse" x="690" y="-5" width="787" height="489">
<path d="M1476.94 -3.71889C1473.55 -3.63815 1470.1 -3.5968 1466.59 -3.60325C1282.04 -3.95702 1246.97 66.3812 1209.16 142.201C1202.61 155.336 1195.98 168.635 1188.48 181.763C1163.04 226.275 1135.7 267.965 1094.79 287.828C1053.87 307.695 999.391 305.714 919.697 262.868C840.171 220.11 787.254 208.005 753.139 231.25C719.009 254.505 703.628 313.158 699.182 411.904C698.014 437.85 695.229 461.639 691.026 483.004L690.537 483.004C694.746 461.64 697.534 437.844 698.702 411.883C703.156 312.977 718.596 254.206 752.868 230.854C787.156 207.491 840.226 219.595 919.924 262.445C999.457 305.206 1053.79 307.198 1094.58 287.396C1135.37 267.59 1162.66 225.968 1188.06 181.525C1195.56 168.409 1202.19 155.115 1208.73 141.986C1246.6 66.0284 1281.74 -4.43735 1466.59 -4.08358C1470.1 -4.0766 1473.55 -4.11848 1476.94 -4.19922L1476.94 -3.71889L1476.94 -3.71889Z" fill="white"/>
</mask>
<g mask="url(#mask4_1136_84)">
<path d="M1476.94 483L1476.94 -4.44141L690.538 -4.44144L690.538 483L1476.94 483Z" fill="url(#paint5_linear_1136_84)"/>
</g>
<mask id="mask5_1136_84" style="mask-type:luminance" maskUnits="userSpaceOnUse" x="685" y="-9" width="792" height="492">
<path d="M1476.94 -7.77163C1475.55 -7.78111 1474.19 -7.76807 1472.79 -7.79257C1288.26 -10.9855 1252.11 58.8047 1213.14 134.033C1206.39 147.069 1199.55 160.268 1191.85 173.274C1165.72 217.389 1137.75 258.653 1096.53 277.884C1055.31 297.119 1000.87 294.301 921.849 250.232C842.991 206.256 790.268 193.339 755.799 216.056C721.314 238.783 705.03 297.192 699.063 395.858C697.086 428.544 692.593 457.764 685.987 482.983L685.493 482.983C692.108 457.77 696.606 428.539 698.584 395.83C704.561 297.003 720.906 238.478 755.534 215.655C790.178 192.823 843.054 205.742 922.083 249.814C1000.95 293.792 1055.24 296.621 1096.33 277.448C1137.43 258.273 1165.35 217.076 1191.44 173.028C1199.14 160.024 1205.97 146.836 1212.71 133.812C1251.75 58.4456 1287.97 -11.4711 1472.79 -8.27329C1474.2 -8.24893 1475.56 -8.26183 1476.94 -8.25182L1476.94 -7.77163V-7.77163Z" fill="white"/>
</mask>
<g mask="url(#mask5_1136_84)">
<path d="M1476.94 482.985L1476.94 -11.4688L685.493 -11.4688L685.493 482.985L1476.94 482.985Z" fill="url(#paint6_linear_1136_84)"/>
</g>
<mask id="mask6_1136_84" style="mask-type:luminance" maskUnits="userSpaceOnUse" x="679" y="-13" width="798" height="496">
<path d="M1476.94 -11.9681C1294.17 -17.4487 1257.05 51.541 1217.07 125.898C1210.12 138.827 1203.08 151.917 1195.18 164.807C1168.38 208.515 1139.77 249.343 1098.27 267.937C1056.75 286.536 1002.36 282.881 924.026 237.602C845.855 192.418 793.338 178.691 758.522 200.875C723.691 223.069 706.509 281.22 699.022 379.783C695.986 419.764 689.256 454.492 679.591 482.989L679.085 482.989C688.766 454.503 695.505 419.762 698.544 379.747C706.043 281.024 723.287 222.756 758.264 200.47C793.255 178.173 845.927 191.904 924.268 237.187C1002.44 282.374 1056.69 286.037 1098.07 267.5C1139.45 248.958 1168.01 208.196 1194.77 164.555C1202.67 151.673 1209.7 138.591 1216.65 125.671C1256.7 51.1813 1293.89 -17.9339 1476.94 -12.4478L1476.94 -11.9681Z" fill="white"/>
</mask>
<g mask="url(#mask6_1136_84)">
<path d="M1476.94 482.986L1476.94 -17.9375L679.086 -17.9375L679.085 482.986L1476.94 482.986Z" fill="url(#paint7_linear_1136_84)"/>
</g>
<mask id="mask7_1136_84" style="mask-type:luminance" maskUnits="userSpaceOnUse" x="671" y="-18" width="806" height="501">
<path d="M1476.94 -16.3426C1299.41 -22.8838 1261.63 44.8384 1220.96 117.761C1213.81 130.579 1206.58 143.558 1198.47 156.326C1171 199.617 1141.77 240.001 1099.98 257.955C1058.18 275.912 1003.86 271.421 926.23 224.942C848.764 178.56 796.464 164.026 761.312 185.673C726.143 207.327 708.066 265.208 699.061 363.645C694.668 411.664 685.055 452.007 671.557 482.989L671.033 482.989C684.555 452.032 694.186 411.671 698.584 363.601C707.604 265.006 725.744 207.01 761.059 185.265C796.391 163.509 848.844 178.049 926.477 224.53C1003.95 270.915 1058.13 275.413 1099.79 257.514C1141.46 239.612 1170.64 199.293 1198.07 156.07C1206.16 143.314 1213.4 130.339 1220.54 117.526C1261.29 44.4723 1299.13 -23.3715 1476.94 -16.8233L1476.94 -16.3426Z" fill="white"/>
</mask>
<g mask="url(#mask7_1136_84)">
<path d="M1476.94 482.99L1476.94 -23.3711L671.033 -23.3711L671.033 482.99L1476.94 482.99Z" fill="url(#paint8_linear_1136_84)"/>
</g>
<mask id="mask8_1136_84" style="mask-type:luminance" maskUnits="userSpaceOnUse" x="660" y="-22" width="817" height="505">
<path d="M1476.94 -20.7928C1304.57 -28.2802 1266.13 38.1499 1224.81 109.629C1217.47 122.333 1210.03 135.195 1201.73 147.845C1173.59 190.708 1143.74 230.636 1101.68 247.946C1059.61 265.258 1005.36 259.931 928.459 212.264C851.718 164.696 799.648 149.359 764.166 170.461C728.668 191.573 709.701 249.168 699.18 347.455C693.064 404.583 679.707 450.702 661.407 482.992L660.858 482.992C679.193 450.752 692.578 404.609 698.702 347.404C709.24 248.959 728.273 191.25 763.919 170.05C799.583 148.84 851.806 164.185 928.714 211.856C1005.46 259.427 1059.57 264.758 1101.5 247.502C1143.44 230.244 1173.23 190.379 1201.33 147.581C1209.61 134.958 1217.05 122.094 1224.39 109.389C1265.79 37.7802 1304.29 -28.7689 1476.94 -21.2732L1476.94 -20.7928Z" fill="white"/>
</mask>
<g mask="url(#mask8_1136_84)">
<path d="M1476.94 482.992L1476.94 -28.7695L660.859 -28.7696L660.858 482.992L1476.94 482.992Z" fill="url(#paint9_linear_1136_84)"/>
</g>
<mask id="mask9_1136_84" style="mask-type:luminance" maskUnits="userSpaceOnUse" x="647" y="-27" width="830" height="511">
<path d="M1476.94 -25.333C1309.59 -33.6696 1270.55 31.4745 1228.61 101.51C1221.07 114.101 1213.44 126.849 1204.94 139.366C1176.15 181.791 1145.69 221.256 1103.37 237.916C1061.04 254.579 1006.87 248.418 930.715 199.573C854.717 150.829 802.889 134.694 767.086 155.247C731.267 175.81 711.415 233.107 699.38 331.22C691.057 399.068 672.727 451.18 648.332 482.858L648.219 483.004L647.61 483.004L647.951 482.564C672.296 450.951 690.591 398.922 698.903 331.161C710.958 232.891 730.877 175.481 766.847 154.832C802.832 134.174 854.812 150.321 930.976 199.169C1006.98 247.915 1061 254.078 1103.19 237.469C1145.39 220.857 1175.8 181.456 1204.55 139.096C1213.03 126.6 1220.66 113.853 1228.2 101.264C1270.22 31.1013 1309.33 -34.1594 1476.94 -25.8122L1476.94 -25.333Z" fill="white"/>
</mask>
<g mask="url(#mask9_1136_84)">
<path d="M1476.94 482.996L1476.94 -34.168L647.61 -34.168L647.61 482.996L1476.94 482.996Z" fill="url(#paint10_linear_1136_84)"/>
</g>
<mask id="mask10_1136_84" style="mask-type:luminance" maskUnits="userSpaceOnUse" x="628" y="-32" width="849" height="515">
<path d="M1476.94 -30.0023C1314.5 -39.0972 1274.9 24.768 1232.37 93.3596C1224.64 105.83 1216.81 118.458 1208.12 130.846C1178.68 172.823 1147.61 211.815 1105.04 227.822C1062.46 243.832 1008.4 236.838 933 186.827C857.761 136.92 806.188 119.989 770.073 139.99C733.94 159.999 713.208 216.984 699.662 314.9C690.294 382.612 671.163 434.435 646.283 465.735C640.953 472.44 635.357 478.205 629.537 482.983L628.775 482.983C634.733 478.154 640.458 472.289 645.907 465.435C670.736 434.2 689.831 382.457 699.187 314.833C712.754 216.759 733.556 159.664 769.839 139.57C806.138 119.468 857.864 136.413 933.266 186.427C1008.51 236.337 1062.43 243.33 1104.87 227.372C1147.32 211.412 1178.33 172.483 1207.73 130.571C1216.4 118.211 1224.23 105.58 1231.97 93.1055C1274.57 24.3899 1314.24 -39.5904 1476.94 -30.4831L1476.94 -30.0023Z" fill="white"/>
</mask>
<g mask="url(#mask10_1136_84)">
<path d="M1476.94 482.987L1476.94 -39.5859L628.776 -39.586L628.775 482.987L1476.94 482.987Z" fill="url(#paint11_linear_1136_84)"/>
</g>
<mask id="mask11_1136_84" style="mask-type:luminance" maskUnits="userSpaceOnUse" x="553" y="-37" width="924" height="519">
<path d="M1476.94 -34.713C1319.32 -44.463 1279.16 18.0956 1236.09 85.2359C1228.17 97.585 1220.15 110.089 1211.26 122.345C1181.18 163.864 1149.51 202.373 1106.7 217.723C1063.87 233.076 1009.93 225.251 935.31 174.086C860.849 123.028 809.543 105.306 773.124 124.747C736.687 144.199 715.08 200.858 700.026 298.554C689.616 366.114 669.688 417.637 644.328 448.549C630.306 465.643 614.617 476.441 597.953 480.174C583.541 483.402 568.408 481.344 553.001 473.504L553.001 472.966C568.381 480.844 583.48 482.925 597.848 479.706C614.403 475.998 630.001 465.255 643.957 448.244C669.264 417.394 689.155 365.952 699.551 298.48C714.629 200.627 736.308 143.858 772.897 124.325C809.502 104.783 860.961 122.522 935.582 173.69C1010.05 224.752 1063.85 232.574 1106.53 217.271C1149.23 201.966 1180.83 163.518 1210.88 122.064C1219.73 109.841 1227.76 97.3312 1235.68 84.9767C1278.83 17.7144 1319.06 -44.9582 1476.94 -35.1942L1476.94 -34.713Z" fill="white"/>
</mask>
<g mask="url(#mask11_1136_84)">
<path d="M1476.94 483.403L1476.94 -44.957L553.001 -44.9571L553.001 483.403L1476.94 483.403Z" fill="url(#paint12_linear_1136_84)"/>
</g>
<mask id="mask12_1136_84" style="mask-type:luminance" maskUnits="userSpaceOnUse" x="553" y="-42" width="924" height="506">
<path d="M1476.94 -39.5116C1324.02 -49.8336 1283.34 11.4223 1239.76 77.1119C1231.64 89.3478 1223.42 101.737 1214.37 113.836C1183.64 154.886 1151.39 192.902 1108.34 207.592C1065.29 222.284 1011.47 213.631 937.648 161.324C863.983 109.126 812.957 90.6168 776.242 109.497C739.511 128.384 717.031 184.704 700.474 282.156C689.024 349.547 668.304 400.757 642.47 431.277C628.185 448.154 612.332 458.71 595.613 462.186C581.859 465.046 567.524 463.111 553.001 455.963L553.001 455.428C567.497 462.612 581.8 464.566 595.515 461.715C612.127 458.262 627.889 447.76 642.105 430.967C667.884 400.512 688.565 349.382 700 282.077C716.584 184.466 739.136 128.036 776.021 109.069C812.923 90.0934 864.102 108.623 937.927 160.933C1011.6 213.135 1065.27 221.783 1108.19 207.139C1151.11 192.493 1183.3 154.536 1213.98 113.548C1223.04 101.443 1231.25 89.0682 1239.36 76.8471C1283.02 11.0381 1323.77 -50.3283 1476.94 -39.9928L1476.94 -39.5116Z" fill="white"/>
</mask>
<g mask="url(#mask12_1136_84)">
<path d="M1476.94 465.05L1476.94 -50.3242L553.001 -50.3243L553.001 465.05L1476.94 465.05Z" fill="url(#paint13_linear_1136_84)"/>
</g>
<mask id="mask13_1136_84" style="mask-type:luminance" maskUnits="userSpaceOnUse" x="553" y="-45" width="924" height="491">
<path d="M1414.52 -44.5156C1315.59 -36.2656 1280.52 14.8351 1243.39 68.9791C1235.08 81.0901 1226.67 93.3526 1217.43 105.308C1186.08 145.881 1153.24 183.397 1109.97 197.423C1066.7 211.45 1013.02 201.97 940.014 148.533C867.162 95.2078 816.428 75.9159 779.425 94.2288C742.407 112.549 719.062 168.516 701.005 265.702C688.518 332.909 667.011 383.794 640.711 413.913C626.167 430.567 610.153 440.879 593.383 444.097C580.265 446.614 566.69 444.792 553 438.273L553 437.739C566.665 444.293 580.211 446.136 593.291 443.626C609.954 440.429 625.877 430.17 640.349 413.596C666.595 383.542 688.062 332.735 700.533 265.615C718.619 168.272 742.038 112.196 779.212 93.7984C816.401 75.3933 867.289 94.7061 940.298 148.147C1013.16 201.476 1066.69 210.948 1109.83 196.967C1152.97 182.983 1185.75 145.525 1217.05 105.014C1226.3 93.0475 1234.7 80.8016 1242.99 68.7085C1279.53 15.4319 1314.08 -34.902 1409.18 -44.5156L1414.52 -44.5156ZM1476.94 -44.4085C1476.41 -44.4469 1475.89 -44.4787 1475.36 -44.5156L1476.94 -44.5156L1476.94 -44.4085Z" fill="white"/>
</mask>
<g mask="url(#mask13_1136_84)">
<path d="M1476.94 446.614L1476.94 -44.5156L553 -44.5157L553 446.614L1476.94 446.614Z" fill="url(#paint14_linear_1136_84)"/>
</g>
<mask id="mask14_1136_84" style="mask-type:luminance" maskUnits="userSpaceOnUse" x="553" y="-45" width="828" height="472">
<path d="M1380.92 -44.5156C1310.47 -28.6977 1279.49 14.9705 1246.98 60.8528C1238.49 72.8288 1229.89 84.9561 1220.46 96.7772C1188.49 136.863 1155.08 173.87 1111.6 187.228C1068.11 200.588 1014.58 190.283 942.41 135.729C870.388 81.289 819.957 61.2185 782.677 78.9595C745.381 96.7084 721.177 152.309 701.623 249.207C688.102 316.213 665.814 366.761 639.051 396.472C624.252 412.901 608.082 422.964 591.264 425.924C578.762 428.124 565.909 426.398 553.002 420.446L553.002 419.917C565.886 425.902 578.712 427.645 591.18 425.451C607.891 422.511 623.969 412.499 638.695 396.15C665.401 366.503 687.648 316.033 701.152 249.112C720.737 152.059 745.018 96.3496 782.47 78.5264C819.939 60.6948 870.523 80.7888 942.699 135.346C1014.73 189.789 1068.11 200.085 1111.45 186.768C1154.81 173.449 1188.16 136.502 1220.09 96.4766C1229.51 84.6635 1238.1 72.5436 1246.58 60.5742C1278.84 15.0652 1309.56 -28.2787 1378.66 -44.5156L1380.92 -44.5156Z" fill="white"/>
</mask>
<g mask="url(#mask14_1136_84)">
<path d="M1380.92 428.124L1380.92 -44.5156L553.001 -44.5157L553.001 428.124L1380.92 428.124Z" fill="url(#paint15_linear_1136_84)"/>
</g>
<mask id="mask15_1136_84" style="mask-type:luminance" maskUnits="userSpaceOnUse" x="553" y="-45" width="811" height="454">
<path d="M1363.5 -44.5156C1308.2 -26.0354 1279.98 12.4831 1250.51 52.7238C1241.84 64.5692 1233.06 76.5641 1223.45 88.2357C1190.86 127.824 1156.89 164.312 1113.2 177C1069.51 189.69 1016.15 178.562 944.831 122.906C873.657 67.3635 823.541 46.5194 785.992 63.685C748.426 80.858 723.368 136.08 702.324 232.665C687.771 299.457 664.706 349.656 637.49 378.95C622.44 395.149 606.116 404.963 589.254 407.663C577.346 409.57 565.175 407.93 553 402.488L553 401.961C565.154 407.434 577.3 409.092 589.177 407.19C605.93 404.507 622.161 394.743 637.137 378.623C664.298 349.389 687.321 299.268 701.854 232.563C722.933 135.822 748.07 80.4932 785.792 63.249C823.531 45.9957 873.799 66.8659 945.127 122.527C1016.31 178.072 1069.52 189.188 1113.07 176.54C1156.62 163.89 1190.54 127.46 1223.08 87.9302C1232.69 76.2607 1241.46 64.2758 1250.13 52.4398C1279.4 12.4582 1307.45 -25.8261 1361.95 -44.5156L1363.5 -44.5156Z" fill="white"/>
</mask>
<g mask="url(#mask15_1136_84)">
<path d="M1363.5 409.57L1363.5 -44.5156L553 -44.5157L553 409.57L1363.5 409.57Z" fill="url(#paint16_linear_1136_84)"/>
</g>
<mask id="mask16_1136_84" style="mask-type:luminance" maskUnits="userSpaceOnUse" x="553" y="-45" width="799" height="435">
<path d="M1351.43 -44.5156C1306.69 -25.0489 1280.85 9.09341 1254.01 44.5924C1245.16 56.2988 1236.2 68.1518 1226.4 79.6843C1193.21 118.767 1158.67 154.729 1114.8 166.742C1070.92 178.758 1017.74 166.811 947.283 110.063C876.974 53.4332 827.186 31.8198 789.377 48.405C751.551 64.9982 725.645 119.829 703.114 216.079C687.533 282.637 663.698 332.476 636.032 361.349C620.734 377.314 604.261 386.876 587.359 389.317C576.019 390.954 564.491 389.386 553.001 384.398L553.001 383.874C564.473 388.893 575.979 390.476 587.291 388.842C604.084 386.417 620.463 376.904 635.686 361.017C663.293 332.205 687.085 282.444 702.646 215.969C725.213 119.565 751.199 64.6297 789.183 47.9677C827.184 31.2974 877.125 52.9382 947.585 109.69C1017.9 166.324 1070.94 178.257 1114.67 166.28C1158.42 154.301 1192.89 118.397 1226.04 79.374C1235.82 67.8628 1244.78 56.0099 1253.63 44.303C1280.31 9.01267 1306 -24.9383 1350.19 -44.5156L1351.43 -44.5156Z" fill="white"/>
</mask>
<g mask="url(#mask16_1136_84)">
<path d="M1351.43 390.954L1351.43 -44.5156L553.001 -44.5157L553.001 390.954L1351.43 390.954Z" fill="url(#paint17_linear_1136_84)"/>
</g>
</g>
<g opacity="0.12">
<mask id="mask17_1136_84" style="mask-type:luminance" maskUnits="userSpaceOnUse" x="-157" y="-19" width="911" height="205">
<path d="M752.878 104.737C742.204 100.65 731.127 95.7943 719.609 90.0308C554.563 7.44236 491.822 54.7737 424.191 105.795C412.479 114.63 400.621 123.576 388.042 131.99C345.429 160.495 302.382 185.63 256.905 185.172C211.419 184.714 163.538 158.658 111.299 84.7756C59.1678 11.0477 17.1956 -23.3781 -23.7016 -17.7779C-64.6161 -12.175 -104.526 33.4737 -152.516 119.889C-153.755 122.122 -155 124.325 -156.249 126.506L-156.665 126.266C-155.418 124.088 -154.174 121.887 -152.936 119.657C-104.868 33.101 -64.8534 -12.6266 -23.766 -18.2526C17.3392 -23.8816 59.4491 10.612 111.692 84.4988C163.826 158.233 211.573 184.237 256.908 184.693C302.254 185.149 345.228 160.053 387.776 131.592C400.323 123.199 412.185 114.25 423.901 105.412C491.655 54.2972 554.51 6.87902 719.824 89.6016C731.353 95.3706 742.44 100.23 753.121 104.316L752.878 104.737L752.878 104.737Z" fill="white"/>
</mask>
<g mask="url(#mask17_1136_84)">
<path d="M516.169 514.727L753.12 104.316L78.7911 -285.008L-158.16 125.403L516.169 514.727Z" fill="url(#paint18_linear_1136_84)"/>
</g>
<mask id="mask18_1136_84" style="mask-type:luminance" maskUnits="userSpaceOnUse" x="-158" y="-31" width="913" height="209">
<path d="M754.313 102.251C745.638 98.5732 736.704 94.3724 727.497 89.5869C563.741 4.46774 500.277 50.828 431.866 100.803C420.019 109.456 408.023 118.219 395.318 126.437C352.27 154.282 308.84 178.752 263.376 177.594C217.902 176.436 170.428 149.646 119.332 74.9683C68.3434 0.446828 26.9058 -34.6198 -14.0736 -29.6488C-55.0705 -24.6774 -95.6793 20.3512 -144.995 106.017C-148.983 112.945 -153.014 119.618 -157.078 126.039L-157.495 125.798C-153.431 119.379 -149.401 112.706 -145.412 105.778C-96.0166 19.9743 -55.3012 -25.1315 -14.1321 -30.1249C27.0551 -35.1204 68.6297 0.0161931 119.728 74.6983C170.721 149.224 218.062 175.959 263.386 177.114C308.721 178.268 352.076 153.837 395.058 126.035C407.734 117.835 419.733 109.07 431.583 100.414C500.118 50.3492 563.697 3.90533 727.717 89.1609C736.934 93.9515 745.874 98.1531 754.556 101.832L754.314 102.251L754.313 102.251Z" fill="white"/>
</mask>
<g mask="url(#mask18_1136_84)">
<path d="M516.165 514.736L754.555 101.832L80.8953 -287.106L-157.495 125.798L516.165 514.736Z" fill="url(#paint19_linear_1136_84)"/>
</g>
<mask id="mask19_1136_84" style="mask-type:luminance" maskUnits="userSpaceOnUse" x="-160" y="-43" width="917" height="214">
<path d="M755.924 99.4605C749.189 96.3308 742.321 92.9167 735.279 89.1178C572.851 1.48914 508.679 46.8662 439.507 95.78C427.521 104.256 415.385 112.838 402.569 120.85C359.096 148.029 315.295 171.826 269.852 169.968C224.4 168.111 177.344 140.594 127.405 65.1403C77.569 -10.1564 36.6754 -45.8559 -4.37543 -41.5174C-45.4448 -37.1768 -86.7432 7.22002 -137.374 92.1158C-144.377 103.859 -151.494 114.864 -158.678 125.11L-159.094 124.87C-151.91 114.623 -144.792 103.618 -137.786 91.8708C-87.0734 6.83788 -45.6681 -37.6355 -4.42668 -41.9944C36.8334 -46.3548 77.8623 -10.5829 127.805 64.8762C177.644 140.178 224.568 167.638 269.87 169.489C315.181 171.341 358.908 147.58 402.314 120.443C415.129 112.431 427.255 103.857 439.23 95.3889C508.529 46.3863 572.817 0.925728 735.505 88.6949C742.553 92.4969 749.426 95.9128 756.165 99.043L755.924 99.4605L755.924 99.4605Z" fill="white"/>
</mask>
<g mask="url(#mask19_1136_84)">
<path d="M516.166 514.732L756.165 99.043L80.9038 -290.819L-159.095 124.87L516.166 514.732Z" fill="url(#paint20_linear_1136_84)"/>
</g>
<mask id="mask20_1136_84" style="mask-type:luminance" maskUnits="userSpaceOnUse" x="-162" y="-55" width="920" height="218">
<path d="M757.659 96.4589C752.823 94.0152 747.929 91.4408 742.943 88.6501C581.883 -1.46678 517.019 42.9171 447.099 90.76C434.983 99.0509 422.714 107.446 409.779 115.258C365.893 141.764 321.73 164.884 276.319 162.327C230.902 159.77 184.274 131.532 135.503 55.3195C86.8326 -20.7346 46.4941 -57.0588 5.38008 -53.3526C-35.7515 -49.6452 -77.7296 -5.88908 -129.662 78.2158C-139.984 94.9309 -150.513 110.117 -161.118 123.717L-161.538 123.475C-150.93 109.875 -140.398 94.687 -130.072 77.9643C-78.0543 -6.27668 -35.9681 -50.1066 5.33628 -53.8299C46.6592 -57.5557 87.1321 -21.1563 135.907 55.0619C184.581 131.121 231.077 159.3 276.346 161.849C321.622 164.398 365.711 141.312 409.531 114.846C422.471 107.031 434.726 98.6454 446.829 90.3634C516.875 42.4337 581.857 -2.03035 743.177 88.2321C748.166 91.0234 753.062 93.5989 757.899 96.043L757.659 96.4589V96.4589Z" fill="white"/>
</mask>
<g mask="url(#mask20_1136_84)">
<path d="M516.162 514.745L757.899 96.043L80.2004 -295.227L-161.537 123.475L516.162 514.745Z" fill="url(#paint21_linear_1136_84)"/>
</g>
<mask id="mask21_1136_84" style="mask-type:luminance" maskUnits="userSpaceOnUse" x="-165" y="-66" width="925" height="221">
<path d="M759.52 93.2323C756.539 91.6049 753.534 89.9176 750.499 88.1574C590.844 -4.42759 525.304 38.9522 454.655 85.7126C442.416 93.8129 430.023 102.015 416.962 109.633C372.671 135.46 328.155 157.897 282.79 154.642C237.417 151.386 191.231 122.434 143.638 45.4805C96.1446 -31.3125 56.3698 -68.2535 15.2027 -65.1803C-25.982 -62.1058 -68.6293 -19.0019 -121.852 64.2921C-135.837 86.1776 -150.144 105.387 -164.466 121.788L-164.889 121.544C-150.563 105.147 -136.25 85.9323 -122.257 64.0343C-68.9475 -19.3946 -26.1904 -62.572 15.1665 -65.6587C56.5419 -68.7479 96.4497 -31.7307 144.045 45.2279C191.542 122.026 237.599 150.917 282.824 154.162C328.057 157.408 372.497 135.005 416.719 109.218C429.77 101.607 442.157 93.4085 454.391 85.3118C525.167 38.4661 590.827 -4.99206 750.74 87.742C753.775 89.5023 756.78 91.189 759.76 92.8164L759.52 93.2324L759.52 93.2323Z" fill="white"/>
</mask>
<g mask="url(#mask21_1136_84)">
<path d="M516.16 514.742L759.881 92.6055L78.8339 -300.597L-164.887 121.539L516.16 514.742Z" fill="url(#paint22_linear_1136_84)"/>
</g>
<mask id="mask22_1136_84" style="mask-type:luminance" maskUnits="userSpaceOnUse" x="-170" y="-78" width="932" height="226">
<path d="M761.546 89.7251C760.348 89.0226 759.164 88.3538 757.958 87.6291C599.747 -7.40071 533.545 34.9641 462.184 80.6303C449.819 88.5434 437.299 96.5559 424.125 103.968C379.442 129.11 334.585 150.859 289.275 146.906C243.957 142.952 198.221 113.293 151.819 35.616C105.514 -41.8975 66.3129 -79.446 25.1029 -77.0063C-16.1246 -74.5669 -59.4317 -32.1251 -113.932 50.3389C-131.987 77.6576 -150.489 100.716 -168.818 119.253L-169.247 119.006C-150.912 100.478 -132.401 77.4128 -114.333 50.0751C-59.7438 -32.5229 -16.3261 -75.0353 25.0739 -77.4861C66.4931 -79.9374 105.826 -42.3105 152.231 35.3712C198.54 112.889 244.146 142.486 289.317 146.426C334.495 150.369 379.275 128.652 423.89 103.549C437.061 96.1374 449.571 88.1318 461.926 80.2257C533.417 34.4756 599.739 -7.96606 758.205 87.2167C759.409 87.9402 760.591 88.6074 761.786 89.3093L761.546 89.7251V89.7251Z" fill="white"/>
</mask>
<g mask="url(#mask22_1136_84)">
<path d="M516.168 514.733L763.396 86.5234L77.9799 -309.201L-169.247 119.008L516.168 514.733Z" fill="url(#paint23_linear_1136_84)"/>
</g>
<mask id="mask23_1136_84" style="mask-type:luminance" maskUnits="userSpaceOnUse" x="-175" y="-90" width="939" height="230">
<path d="M763.644 86.0907C608.1 -10.0407 541.46 31.1468 469.657 75.5512C457.172 83.2721 444.532 91.0899 431.243 98.3006C386.176 122.751 340.99 143.807 295.747 139.157C250.494 134.506 205.219 104.146 160.019 25.7662C114.913 -52.4496 76.2946 -90.5964 35.0518 -88.7923C-6.2098 -86.9869 -50.1656 -45.2177 -105.931 36.3968C-128.551 69.5029 -151.743 96.2134 -174.362 116.06L-174.8 115.808C-152.174 95.9782 -128.967 69.261 -106.327 36.1268C-50.4707 -45.6207 -6.40323 -87.4599 35.0302 -89.2724C76.4821 -91.0859 115.232 -52.8583 160.436 25.5276C205.545 103.749 250.69 134.044 295.794 138.679C340.907 143.315 386.018 122.291 431.015 97.8783C444.296 90.672 456.929 82.8592 469.404 75.1437C541.335 30.6595 608.097 -10.6027 763.884 85.6753L763.644 86.0907Z" fill="white"/>
</mask>
<g mask="url(#mask23_1136_84)">
<path d="M516.167 514.734L766.629 80.9219L75.6639 -318.007L-174.798 115.806L516.167 514.734Z" fill="url(#paint24_linear_1136_84)"/>
</g>
<mask id="mask24_1136_84" style="mask-type:luminance" maskUnits="userSpaceOnUse" x="-182" y="-102" width="949" height="235">
<path d="M765.832 82.2999C615.356 -12.1304 548.778 27.6294 477.096 70.4471C464.496 77.9733 451.738 85.5947 438.336 92.6005C392.898 116.354 347.391 136.713 302.225 131.367C257.048 126.02 212.246 94.9677 168.258 15.902C124.362 -62.9989 86.3357 -101.735 45.0694 -100.565C3.7853 -99.396 -40.8102 -58.3085 -97.8276 22.4373C-125.641 61.8265 -154.138 91.959 -181.319 112.041L-181.772 111.779C-154.583 91.7304 -126.063 61.5923 -98.2189 22.1612C-41.1096 -58.715 3.59832 -99.8704 45.0545 -101.045C86.5311 -102.22 124.687 -63.4014 168.679 15.6688C212.578 94.5751 257.251 125.561 302.28 130.89C347.316 136.221 392.745 115.893 438.113 92.176C451.502 85.1766 464.255 77.5584 476.85 70.0349C548.662 27.1397 615.36 -12.6915 766.072 81.8835L765.832 82.2999Z" fill="white"/>
</mask>
<g mask="url(#mask24_1136_84)">
<path d="M516.165 514.736L769.345 76.2148L71.4074 -326.74L-181.773 111.781L516.165 514.736Z" fill="url(#paint25_linear_1136_84)"/>
</g>
<mask id="mask25_1136_84" style="mask-type:luminance" maskUnits="userSpaceOnUse" x="-191" y="-113" width="960" height="238">
<path d="M768.057 78.4481C622.519 -14.2238 556.019 24.0891 484.494 65.3317C471.782 72.6607 458.911 80.0827 445.396 86.8857C399.596 109.937 353.781 129.591 308.701 123.551C263.612 117.51 219.293 85.7716 176.528 6.03912C133.852 -73.5265 96.4261 -112.843 55.1474 -112.31C13.8486 -111.775 -31.3742 -71.3797 -89.6294 8.47824C-123.49 54.8951 -158.117 88.1564 -190.11 106.971L-190.586 106.697C-158.587 87.9428 -123.924 54.6743 -90.0182 8.19566C-31.6688 -71.7914 13.6682 -112.253 55.139 -112.789C96.6293 -113.326 134.184 -73.9247 176.952 5.8135C219.631 85.3844 263.823 117.054 308.764 123.075C353.713 129.099 399.451 109.473 445.18 86.4567C458.667 79.6678 471.54 72.2455 484.253 64.915C555.907 23.5977 622.527 -14.7838 768.297 78.0322L768.057 78.4481Z" fill="white"/>
</mask>
<g mask="url(#mask25_1136_84)">
<path d="M516.164 514.741L772.044 71.543L65.2944 -336.499L-190.586 106.699L516.164 514.741Z" fill="url(#paint26_linear_1136_84)"/>
</g>
<mask id="mask26_1136_84" style="mask-type:luminance" maskUnits="userSpaceOnUse" x="-203" y="-125" width="974" height="243">
<path d="M770.327 74.5137C629.567 -16.3804 563.184 20.5158 491.846 60.1987C479.021 67.333 466.036 74.5562 452.42 81.1484C406.271 103.493 360.158 122.439 315.176 115.706C270.185 108.971 226.36 76.5548 184.827 -3.826C143.382 -84.0383 106.566 -123.926 65.2825 -124.028C23.9804 -124.129 -21.8597 -84.435 -81.3392 -5.48402C-122.471 49.1128 -164.401 85.0784 -201.367 100.315L-201.538 100.385L-202.066 100.08L-201.55 99.8698C-164.66 84.6642 -122.801 48.7533 -81.7227 -5.77285C-22.148 -84.8505 23.8077 -124.609 65.2826 -124.507C106.776 -124.404 143.719 -84.4309 185.254 -4.04495C226.703 76.1726 270.402 108.518 315.246 115.231C360.099 121.944 406.133 103.026 452.211 80.7165C465.805 74.1352 478.789 66.9124 491.612 59.7794C563.08 20.0245 629.581 -16.9374 770.566 74.0988L770.327 74.5137Z" fill="white"/>
</mask>
<g mask="url(#mask26_1136_84)">
<path d="M516.162 514.74L774.744 66.8633L56.5203 -347.803L-202.062 100.074L516.162 514.74Z" fill="url(#paint27_linear_1136_84)"/>
</g>
<mask id="mask27_1136_84" style="mask-type:luminance" maskUnits="userSpaceOnUse" x="-219" y="-137" width="992" height="247">
<path d="M772.661 70.4732C636.526 -18.6263 570.3 16.883 499.177 55.0232C486.246 61.9573 473.153 68.9796 459.433 75.3629C412.944 96.9933 366.544 115.228 321.67 107.803C276.789 100.377 233.468 67.2902 193.178 -13.7189C152.973 -94.5585 116.775 -135.008 75.498 -135.745C34.2015 -136.482 -12.2458 -97.4984 -72.9348 -19.4736C-114.903 34.4833 -157.383 69.7978 -194.579 84.464C-202.549 87.6061 -210.277 89.8004 -217.707 91.0282L-218.366 90.6476C-210.792 89.4447 -202.902 87.2278 -194.756 84.0161C-157.635 69.3805 -115.227 34.1178 -73.313 -19.7685C-12.5262 -97.9192 34.0362 -136.965 75.5051 -136.225C116.992 -135.484 153.316 -94.9466 193.608 -13.932C233.816 66.9131 277.012 99.927 321.748 107.329C366.493 114.733 412.814 96.5255 459.23 74.9281C472.92 68.5592 486.017 61.5354 498.951 54.5993C570.202 16.3898 636.548 -19.1836 772.902 70.0568L772.661 70.4732Z" fill="white"/>
</mask>
<g mask="url(#mask27_1136_84)">
<path d="M516.166 514.737L777.453 62.1758L42.9182 -361.908L-218.368 90.6537L516.166 514.737Z" fill="url(#paint28_linear_1136_84)"/>
</g>
<mask id="mask28_1136_84" style="mask-type:luminance" maskUnits="userSpaceOnUse" x="-280" y="-148" width="1056" height="250">
<path d="M775.017 66.3921C643.383 -20.8652 577.327 13.2341 506.458 49.8443C493.423 56.5781 480.224 63.3964 466.404 69.5692C419.587 90.4813 372.91 107.999 328.157 99.8849C283.393 91.7686 240.586 58.0191 201.549 -23.599C162.593 -105.047 127.022 -146.048 85.7614 -147.421C44.4811 -148.794 -2.56166 -110.529 -64.4464 -33.4485C-107.242 19.8546 -150.261 54.5109 -187.679 68.6018C-208.37 76.3941 -227.356 77.9018 -243.655 72.8025C-257.749 68.3921 -269.826 59.0432 -279.249 44.5499L-278.98 44.0835C-269.599 58.5966 -257.564 67.9484 -243.512 72.3449C-227.32 77.4113 -208.44 75.9059 -187.849 68.1519C-150.507 54.089 -107.56 19.4837 -64.8205 -33.7503C-2.83635 -110.955 44.3228 -149.279 85.7759 -147.9C127.248 -146.521 162.943 -105.43 201.983 -23.8059C240.942 57.6485 283.624 91.3227 328.241 99.4118C372.866 107.503 419.463 90.011 466.208 69.1318C479.991 62.9754 493.195 56.1538 506.236 49.4173C577.235 12.7403 643.411 -21.4208 775.258 65.9753L775.017 66.3921Z" fill="white"/>
</mask>
<g mask="url(#mask28_1136_84)">
<path d="M515.958 515.093L780.138 57.5195L-20.0186 -404.451L-284.199 53.122L515.958 515.093Z" fill="url(#paint29_linear_1136_84)"/>
</g>
<mask id="mask29_1136_84" style="mask-type:luminance" maskUnits="userSpaceOnUse" x="-271" y="-160" width="1049" height="255">
<path d="M777.415 62.2356C650.139 -23.1666 584.286 9.54565 513.699 44.6437C500.55 51.1814 487.237 57.8008 473.345 63.7514C426.212 83.9392 379.272 100.736 334.646 91.9333C290.012 83.129 247.73 48.7253 209.954 -33.4832C172.258 -115.52 137.323 -157.063 96.0866 -159.07C54.8324 -161.079 7.20516 -123.544 -55.8603 -47.4265C-99.4712 5.21055 -143.021 39.2005 -180.654 52.7145C-201.463 60.1875 -220.47 61.4029 -236.687 56.0536C-250.029 51.6528 -261.476 42.8103 -270.479 29.3584L-270.211 28.8949C-261.249 42.365 -249.84 51.2082 -236.537 55.5968C-220.424 60.9124 -201.522 59.6987 -180.815 52.2627C-143.262 38.7778 -99.7864 4.83802 -56.2314 -47.7324C6.93645 -123.973 54.682 -161.567 96.1091 -159.55C137.555 -157.533 172.613 -115.897 210.391 -33.6822C248.091 48.3612 290.251 82.6879 334.738 91.4629C379.232 100.239 426.094 83.4668 473.156 63.3091C487.055 57.3563 500.352 50.744 513.484 44.2144C584.201 9.05264 650.173 -23.7181 777.656 61.8188L777.415 62.2356Z" fill="white"/>
</mask>
<g mask="url(#mask29_1136_84)">
<path d="M525.135 499.198L782.822 52.8711L-17.335 -409.1L-275.022 37.2271L525.135 499.198Z" fill="url(#paint30_linear_1136_84)"/>
</g>
<mask id="mask30_1136_84" style="mask-type:luminance" maskUnits="userSpaceOnUse" x="-262" y="-172" width="1042" height="259">
<path d="M725.859 26.6915C636.061 -15.6268 580.14 11.0928 520.907 39.4152C507.658 45.7505 494.243 52.1643 480.264 57.899C432.825 77.3593 385.631 93.4317 341.145 83.943C296.652 74.4528 254.904 39.4025 218.4 -43.377C181.971 -125.984 147.679 -168.058 106.478 -170.7C65.2592 -173.343 17.0587 -136.547 -47.1726 -61.4095C-91.59 -9.45043 -135.658 23.8643 -173.495 36.7977C-194.417 43.9486 -213.441 44.8717 -229.573 39.2734C-242.192 34.8946 -253.038 26.5293 -261.634 14.0384L-261.367 13.5759C-252.81 26.0849 -242 34.4535 -229.417 38.8198C-213.388 44.3826 -194.469 43.4591 -173.649 36.3426C-135.892 23.4374 -91.8985 -9.82881 -47.5384 -61.7214C16.7971 -136.98 65.1165 -173.833 106.509 -171.179C147.918 -168.524 182.331 -126.355 218.839 -43.5687C255.27 39.044 296.897 74.0149 341.244 83.474C385.598 92.9344 432.714 76.8848 480.082 57.4537C494.074 51.7145 507.47 45.3088 520.7 38.983C578.984 11.1145 634.068 -15.2032 721.234 24.0215L725.859 26.6915ZM779.864 57.9951C779.424 57.6967 778.989 57.409 778.551 57.1133L779.917 57.9023L779.864 57.9951Z" fill="white"/>
</mask>
<g mask="url(#mask30_1136_84)">
<path d="M534.353 483.233L779.917 57.9023L-20.2395 -404.069L-265.804 21.2622L534.353 483.233Z" fill="url(#paint31_linear_1136_84)"/>
</g>
<mask id="mask31_1136_84" style="mask-type:luminance" maskUnits="userSpaceOnUse" x="-253" y="-183" width="950" height="263">
<path d="M696.76 9.89062C627.839 -11.6356 579.18 10.6943 528.076 34.1701C514.737 40.2974 501.23 46.5023 487.153 52.0247C439.418 70.7527 391.981 86.0961 347.647 75.9244C303.305 65.7504 262.102 30.0631 226.876 -53.268C191.724 -136.425 158.084 -179.023 116.929 -182.298C75.7553 -185.575 26.9929 -149.526 -38.3901 -75.3863C-83.6022 -24.1184 -128.179 8.51379 -166.211 20.8624C-187.242 27.6908 -206.278 28.3207 -222.322 22.4748C-234.249 18.1299 -244.517 10.2083 -252.719 -1.40043L-252.455 -1.85817C-244.289 9.76715 -234.053 17.6902 -222.158 22.0241C-206.216 27.8324 -187.286 27.201 -166.359 20.4057C-128.407 8.08328 -83.906 -24.5011 -38.7503 -75.7042C26.7376 -149.963 75.6196 -186.068 116.966 -182.777C158.331 -179.485 192.091 -136.791 227.319 -53.4552C262.474 29.7075 303.557 65.3153 347.754 75.4557C391.959 85.5979 439.316 70.2761 486.978 51.5769C501.046 46.0582 514.545 39.857 527.876 33.7329C578.564 10.4483 626.846 -11.7255 694.799 8.75873L696.76 9.89062Z" fill="white"/>
</mask>
<g mask="url(#mask31_1136_84)">
<path d="M460.44 419.209L696.76 9.89062L-20.2388 -404.069L-256.559 5.24955L460.44 419.209Z" fill="url(#paint32_linear_1136_84)"/>
</g>
<mask id="mask32_1136_84" style="mask-type:luminance" maskUnits="userSpaceOnUse" x="-244" y="-195" width="926" height="267">
<path d="M681.677 1.18359C624.54 -10.4655 580.841 8.78205 535.206 28.9006C521.772 34.8224 508.169 40.8194 494.012 46.1228C445.995 64.1132 398.327 78.7245 354.153 67.8714C309.972 57.0163 269.323 20.6987 235.385 -63.1622C201.518 -146.85 168.538 -189.96 127.436 -193.868C86.3174 -197.779 37.005 -162.484 -29.5119 -89.3611C-75.511 -38.7945 -120.585 -6.85305 -158.802 4.90848C-179.935 11.4121 -198.979 11.7494 -214.932 5.65622C-226.199 1.35413 -235.919 -6.15207 -243.741 -16.9525L-243.478 -17.4085C-235.69 -6.59147 -225.999 0.917181 -214.762 5.20859C-198.912 11.2617 -179.974 10.9211 -158.944 4.449C-120.805 -7.28818 -75.8066 -39.1832 -29.8676 -89.6845C36.7574 -162.925 86.1909 -198.273 127.482 -194.346C168.792 -190.418 201.89 -147.21 235.83 -63.3422C269.7 20.3509 310.231 56.5864 354.266 67.4057C398.309 78.2268 445.898 63.6359 493.843 45.6726C507.997 40.3698 521.589 34.3779 535.012 28.4606C580.354 8.47199 623.789 -10.6577 680.333 0.407226L681.677 1.18359Z" fill="white"/>
</mask>
<g mask="url(#mask32_1136_84)">
<path d="M454.635 394.433L681.678 1.18359L-20.2398 -404.069L-247.283 -10.8188L454.635 394.433Z" fill="url(#paint33_linear_1136_84)"/>
</g>
<mask id="mask33_1136_84" style="mask-type:luminance" maskUnits="userSpaceOnUse" x="-235" y="-207" width="907" height="272">
<path d="M671.222 -4.85156C622.739 -10.365 583.295 6.28629 542.301 23.6088C528.783 29.3214 515.095 35.1054 500.846 40.1952C452.555 57.4436 404.666 71.3201 360.667 59.7887C316.658 48.2553 276.573 11.317 243.93 -73.0564C211.356 -157.254 179.044 -200.866 138.008 -205.407C96.9538 -209.95 47.1027 -175.419 -20.5345 -103.329C-67.3069 -53.4785 -112.869 -22.2346 -151.264 -11.0626C-172.495 -4.88461 -191.543 -4.84121 -207.4 -11.1777C-218.039 -15.4301 -227.239 -22.5518 -234.696 -32.6166L-234.434 -33.0704C-227.009 -22.9886 -217.836 -15.8645 -207.222 -11.6228C-191.466 -5.32694 -172.525 -5.37562 -151.398 -11.523C-113.084 -22.6712 -67.5986 -53.8699 -20.8852 -103.658C46.8602 -175.863 96.8326 -210.445 138.059 -205.883C179.304 -201.319 211.734 -157.608 244.378 -73.2289C276.955 10.9744 316.923 47.8286 360.787 59.3244C404.66 70.8224 452.468 56.9659 500.684 39.7435C514.906 34.6629 528.595 28.8794 542.114 23.1665C582.867 5.94574 622.09 -10.6122 670.145 -5.47324L671.222 -4.85156Z" fill="white"/>
</mask>
<g mask="url(#mask33_1136_84)">
<path d="M453.488 372.276L671.222 -4.85156L-20.2389 -404.067L-237.974 -26.9393L453.488 372.276Z" fill="url(#paint34_linear_1136_84)"/>
</g>
</g>
</g>
<defs>
<linearGradient id="paint0_linear_1136_84" x1="0" y1="182.5" x2="1311" y2="182.5" gradientUnits="userSpaceOnUse">
<stop stop-color="#3C236F"/>
<stop offset="0.47" stop-color="#292692"/>
<stop offset="1" stop-color="#6819E8"/>
</linearGradient>
<linearGradient id="paint1_linear_1136_84" x1="1485.98" y1="35.9997" x2="471.017" y2="572.069" gradientUnits="userSpaceOnUse">
<stop stop-color="#0131B8"/>
<stop offset="0.47" stop-color="#FF00F6"/>
<stop offset="1" stop-color="#39D4FF"/>
</linearGradient>
<linearGradient id="paint2_linear_1136_84" x1="1485.47" y1="35.045" x2="470.509" y2="571.113" gradientUnits="userSpaceOnUse">
<stop stop-color="#0131B8"/>
<stop offset="0.47" stop-color="#FF00F6"/>
<stop offset="1" stop-color="#39D4FF"/>
</linearGradient>
<linearGradient id="paint3_linear_1136_84" x1="1484.61" y1="33.4036" x2="469.645" y2="569.471" gradientUnits="userSpaceOnUse">
<stop stop-color="#0131B8"/>
<stop offset="0.47" stop-color="#FF00F6"/>
<stop offset="1" stop-color="#39D4FF"/>
</linearGradient>
<linearGradient id="paint4_linear_1136_84" x1="1483.58" y1="31.4721" x2="468.62" y2="567.54" gradientUnits="userSpaceOnUse">
<stop stop-color="#0131B8"/>
<stop offset="0.47" stop-color="#FF00F6"/>
<stop offset="1" stop-color="#39D4FF"/>
</linearGradient>
<linearGradient id="paint5_linear_1136_84" x1="1482.34" y1="29.1252" x2="467.377" y2="565.194" gradientUnits="userSpaceOnUse">
<stop stop-color="#0131B8"/>
<stop offset="0.47" stop-color="#FF00F6"/>
<stop offset="1" stop-color="#39D4FF"/>
</linearGradient>
<linearGradient id="paint6_linear_1136_84" x1="1480.34" y1="25.328" x2="465.383" y2="561.395" gradientUnits="userSpaceOnUse">
<stop stop-color="#0131B8"/>
<stop offset="0.47" stop-color="#FF00F6"/>
<stop offset="1" stop-color="#39D4FF"/>
</linearGradient>
<linearGradient id="paint7_linear_1136_84" x1="1478.31" y1="21.4772" x2="463.346" y2="557.546" gradientUnits="userSpaceOnUse">
<stop stop-color="#0131B8"/>
<stop offset="0.47" stop-color="#FF00F6"/>
<stop offset="1" stop-color="#39D4FF"/>
</linearGradient>
<linearGradient id="paint8_linear_1136_84" x1="1476.31" y1="17.6939" x2="461.35" y2="553.76" gradientUnits="userSpaceOnUse">
<stop stop-color="#0131B8"/>
<stop offset="0.47" stop-color="#FF00F6"/>
<stop offset="1" stop-color="#39D4FF"/>
</linearGradient>
<linearGradient id="paint9_linear_1136_84" x1="1474.08" y1="13.4859" x2="459.125" y2="549.553" gradientUnits="userSpaceOnUse">
<stop stop-color="#0131B8"/>
<stop offset="0.47" stop-color="#FF00F6"/>
<stop offset="1" stop-color="#39D4FF"/>
</linearGradient>
<linearGradient id="paint10_linear_1136_84" x1="1471.53" y1="8.64543" x2="456.564" y2="544.714" gradientUnits="userSpaceOnUse">
<stop stop-color="#0131B8"/>
<stop offset="0.47" stop-color="#FF00F6"/>
<stop offset="1" stop-color="#39D4FF"/>
</linearGradient>
<linearGradient id="paint11_linear_1136_84" x1="1468.36" y1="2.63766" x2="453.396" y2="538.705" gradientUnits="userSpaceOnUse">
<stop stop-color="#0131B8"/>
<stop offset="0.47" stop-color="#FF00F6"/>
<stop offset="1" stop-color="#39D4FF"/>
</linearGradient>
<linearGradient id="paint12_linear_1136_84" x1="1459.08" y1="-14.9245" x2="444.124" y2="521.141" gradientUnits="userSpaceOnUse">
<stop stop-color="#0131B8"/>
<stop offset="0.47" stop-color="#FF00F6"/>
<stop offset="1" stop-color="#39D4FF"/>
</linearGradient>
<linearGradient id="paint13_linear_1136_84" x1="1454.18" y1="-24.2003" x2="439.219" y2="511.867" gradientUnits="userSpaceOnUse">
<stop stop-color="#0131B8"/>
<stop offset="0.47" stop-color="#FF00F6"/>
<stop offset="1" stop-color="#39D4FF"/>
</linearGradient>
<linearGradient id="paint14_linear_1136_84" x1="1451.57" y1="-29.1408" x2="436.608" y2="506.929" gradientUnits="userSpaceOnUse">
<stop stop-color="#0131B8"/>
<stop offset="0.47" stop-color="#FF00F6"/>
<stop offset="1" stop-color="#39D4FF"/>
</linearGradient>
<linearGradient id="paint15_linear_1136_84" x1="1437.3" y1="-56.1716" x2="422.337" y2="479.896" gradientUnits="userSpaceOnUse">
<stop stop-color="#0131B8"/>
<stop offset="0.47" stop-color="#FF00F6"/>
<stop offset="1" stop-color="#39D4FF"/>
</linearGradient>
<linearGradient id="paint16_linear_1136_84" x1="1431.57" y1="-67.0187" x2="416.609" y2="469.048" gradientUnits="userSpaceOnUse">
<stop stop-color="#0131B8"/>
<stop offset="0.47" stop-color="#FF00F6"/>
<stop offset="1" stop-color="#39D4FF"/>
</linearGradient>
<linearGradient id="paint17_linear_1136_84" x1="1426.41" y1="-76.7889" x2="411.445" y2="459.28" gradientUnits="userSpaceOnUse">
<stop stop-color="#0131B8"/>
<stop offset="0.47" stop-color="#FF00F6"/>
<stop offset="1" stop-color="#39D4FF"/>
</linearGradient>
<linearGradient id="paint18_linear_1136_84" x1="747.487" y1="132.151" x2="-399.532" y2="88.9182" gradientUnits="userSpaceOnUse">
<stop stop-color="#0131B8"/>
<stop offset="0.47" stop-color="#FF00F6"/>
<stop offset="1" stop-color="#39D4FF"/>
</linearGradient>
<linearGradient id="paint19_linear_1136_84" x1="747.525" y1="131.068" x2="-399.493" y2="87.8351" gradientUnits="userSpaceOnUse">
<stop stop-color="#0131B8"/>
<stop offset="0.47" stop-color="#FF00F6"/>
<stop offset="1" stop-color="#39D4FF"/>
</linearGradient>
<linearGradient id="paint20_linear_1136_84" x1="747.595" y1="129.212" x2="-399.42" y2="85.9792" gradientUnits="userSpaceOnUse">
<stop stop-color="#0131B8"/>
<stop offset="0.47" stop-color="#FF00F6"/>
<stop offset="1" stop-color="#39D4FF"/>
</linearGradient>
<linearGradient id="paint21_linear_1136_84" x1="747.674" y1="127.031" x2="-399.343" y2="83.7981" gradientUnits="userSpaceOnUse">
<stop stop-color="#0131B8"/>
<stop offset="0.47" stop-color="#FF00F6"/>
<stop offset="1" stop-color="#39D4FF"/>
</linearGradient>
<linearGradient id="paint22_linear_1136_84" x1="747.772" y1="124.374" x2="-399.246" y2="81.1413" gradientUnits="userSpaceOnUse">
<stop stop-color="#0131B8"/>
<stop offset="0.47" stop-color="#FF00F6"/>
<stop offset="1" stop-color="#39D4FF"/>
</linearGradient>
<linearGradient id="paint23_linear_1136_84" x1="747.941" y1="120.09" x2="-399.073" y2="76.8578" gradientUnits="userSpaceOnUse">
<stop stop-color="#0131B8"/>
<stop offset="0.47" stop-color="#FF00F6"/>
<stop offset="1" stop-color="#39D4FF"/>
</linearGradient>
<linearGradient id="paint24_linear_1136_84" x1="748.104" y1="115.739" x2="-398.914" y2="72.5063" gradientUnits="userSpaceOnUse">
<stop stop-color="#0131B8"/>
<stop offset="0.47" stop-color="#FF00F6"/>
<stop offset="1" stop-color="#39D4FF"/>
</linearGradient>
<linearGradient id="paint25_linear_1136_84" x1="748.264" y1="111.461" x2="-398.749" y2="68.2287" gradientUnits="userSpaceOnUse">
<stop stop-color="#0131B8"/>
<stop offset="0.47" stop-color="#FF00F6"/>
<stop offset="1" stop-color="#39D4FF"/>
</linearGradient>
<linearGradient id="paint26_linear_1136_84" x1="748.441" y1="106.708" x2="-398.573" y2="63.4759" gradientUnits="userSpaceOnUse">
<stop stop-color="#0131B8"/>
<stop offset="0.47" stop-color="#FF00F6"/>
<stop offset="1" stop-color="#39D4FF"/>
</linearGradient>
<linearGradient id="paint27_linear_1136_84" x1="748.646" y1="101.232" x2="-398.371" y2="58" gradientUnits="userSpaceOnUse">
<stop stop-color="#0131B8"/>
<stop offset="0.47" stop-color="#FF00F6"/>
<stop offset="1" stop-color="#39D4FF"/>
</linearGradient>
<linearGradient id="paint28_linear_1136_84" x1="748.906" y1="94.4497" x2="-398.11" y2="51.2174" gradientUnits="userSpaceOnUse">
<stop stop-color="#0131B8"/>
<stop offset="0.47" stop-color="#FF00F6"/>
<stop offset="1" stop-color="#39D4FF"/>
</linearGradient>
<linearGradient id="paint29_linear_1136_84" x1="749.654" y1="74.5976" x2="-397.358" y2="31.3653" gradientUnits="userSpaceOnUse">
<stop stop-color="#0131B8"/>
<stop offset="0.47" stop-color="#FF00F6"/>
<stop offset="1" stop-color="#39D4FF"/>
</linearGradient>
<linearGradient id="paint30_linear_1136_84" x1="750.046" y1="64.1132" x2="-396.968" y2="20.8809" gradientUnits="userSpaceOnUse">
<stop stop-color="#0131B8"/>
<stop offset="0.47" stop-color="#FF00F6"/>
<stop offset="1" stop-color="#39D4FF"/>
</linearGradient>
<linearGradient id="paint31_linear_1136_84" x1="750.261" y1="58.5333" x2="-396.761" y2="15.3006" gradientUnits="userSpaceOnUse">
<stop stop-color="#0131B8"/>
<stop offset="0.47" stop-color="#FF00F6"/>
<stop offset="1" stop-color="#39D4FF"/>
</linearGradient>
<linearGradient id="paint32_linear_1136_84" x1="751.413" y1="27.9854" x2="-395.603" y2="-15.247" gradientUnits="userSpaceOnUse">
<stop stop-color="#0131B8"/>
<stop offset="0.47" stop-color="#FF00F6"/>
<stop offset="1" stop-color="#39D4FF"/>
</linearGradient>
<linearGradient id="paint33_linear_1136_84" x1="751.874" y1="15.727" x2="-395.139" y2="-27.5053" gradientUnits="userSpaceOnUse">
<stop stop-color="#0131B8"/>
<stop offset="0.47" stop-color="#FF00F6"/>
<stop offset="1" stop-color="#39D4FF"/>
</linearGradient>
<linearGradient id="paint34_linear_1136_84" x1="752.29" y1="4.68717" x2="-394.727" y2="-38.5454" gradientUnits="userSpaceOnUse">
<stop stop-color="#0131B8"/>
<stop offset="0.47" stop-color="#FF00F6"/>
<stop offset="1" stop-color="#39D4FF"/>
</linearGradient>
<clipPath id="clip0_1136_84">
<rect width="1311" height="365" rx="20" fill="white"/>
</clipPath>
</defs>
</svg>
