<svg width="18" height="18" viewBox="0 0 18 18" fill="none" xmlns="http://www.w3.org/2000/svg">
<path fill-rule="evenodd" clip-rule="evenodd" d="M17.9458 9.26485C17.9156 9.32286 17.536 9.7269 17.1023 10.1627L16.3136 10.955L16.5995 12.0438C16.905 13.2075 16.9217 13.3436 16.7821 13.5321C16.65 13.7105 16.4958 13.7708 15.4283 14.0617L14.3553 14.354L14.0611 15.4293C13.8993 16.0206 13.7351 16.5513 13.6961 16.6085C13.6571 16.6657 13.5835 16.7433 13.5325 16.7811C13.344 16.9206 13.2078 16.9039 12.0439 16.5985L10.9549 16.3127L10.1624 17.1013C9.72655 17.535 9.31927 17.9152 9.25737 17.9461C9.1134 18.018 8.8879 18.018 8.74393 17.9461C8.68203 17.9152 8.27475 17.535 7.83888 17.1013L7.04638 16.3127L5.95741 16.5985C4.7935 16.9039 4.6573 16.9206 4.4688 16.7811C4.4178 16.7433 4.3442 16.6657 4.30523 16.6085C4.26623 16.5513 4.10196 16.0206 3.94016 15.4293L3.64598 14.354L2.57301 14.0617C1.50549 13.7708 1.35132 13.7105 1.21916 13.5321C1.07958 13.3436 1.09628 13.2075 1.40182 12.0438L1.68766 10.955L0.898885 10.1627C0.465057 9.7269 0.0848232 9.3197 0.0539108 9.25782C-0.0179714 9.11387 -0.0179714 8.88842 0.0539108 8.74447C0.0848232 8.68259 0.465408 8.27504 0.89966 7.83884L1.68921 7.04572L1.40245 5.95872C1.09575 4.79606 1.07891 4.6595 1.21916 4.47019C1.35132 4.29175 1.50549 4.23145 2.57333 3.94053L3.64654 3.6481L3.93903 2.5751C4.23001 1.50748 4.29032 1.35334 4.4688 1.2212C4.65729 1.08165 4.7935 1.09835 5.95741 1.40383L7.04638 1.68961L7.83888 0.900994C8.27475 0.467251 8.68203 0.0870938 8.74393 0.0561871C8.80586 0.0252804 8.92135 3.9684e-07 9.00065 3.93374e-07C9.07995 3.89908e-07 9.19544 0.0252804 9.25737 0.0561871C9.31927 0.0870937 9.72655 0.467251 10.1624 0.900994L10.9549 1.68961L12.0439 1.40383C13.2078 1.09835 13.344 1.08165 13.5325 1.2212C13.711 1.35334 13.7713 1.50748 14.0623 2.5751L14.3548 3.6481L15.428 3.94053C16.4958 4.23145 16.65 4.29175 16.7821 4.47019C16.9224 4.6595 16.9055 4.79606 16.5988 5.95872L16.3121 7.04571L17.1016 7.83883C17.5359 8.27504 17.9165 8.68259 17.9474 8.74447C18.0181 8.8862 18.0174 9.12737 17.9458 9.26485ZM13.2373 10.8486C13.1188 10.3937 12.7648 9.92485 12.3592 9.68562C11.7376 9.319 10.9685 9.31973 10.3546 9.68759C9.43501 10.2386 9.13668 11.4293 9.68526 12.359C9.92454 12.7645 10.3935 13.1184 10.8484 13.2369C11.1134 13.3059 11.6004 13.3059 11.8653 13.2369C12.4981 13.0721 13.0663 12.5096 13.2355 11.8804C13.3035 11.6276 13.3044 11.1062 13.2373 10.8486ZM12.2513 5.97286C12.1369 5.75155 11.8488 5.63071 11.5943 5.6972C11.4605 5.73211 11.1442 6.03674 8.58993 8.5905C6.03566 11.1443 5.73097 11.4605 5.69604 11.5942C5.58456 12.021 5.98038 12.4166 6.40703 12.305C6.54063 12.2701 6.85778 11.965 9.3979 9.42785C11.6323 7.19613 12.2501 6.56004 12.2901 6.45055C12.3449 6.30013 12.3308 6.12647 12.2513 5.97286ZM12.131 11.4976C12.0139 12.1246 11.2202 12.3606 10.7894 11.8963C10.6392 11.7344 10.5718 11.5674 10.5718 11.3569C10.5718 10.9229 10.9227 10.5722 11.3569 10.5722C11.8442 10.5722 12.2198 11.0212 12.131 11.4976ZM8.50711 6.0828C8.32659 5.45944 7.78138 4.92904 7.15287 4.76537C7.03917 4.73576 6.81037 4.71154 6.64441 4.71154C6.08771 4.71154 5.66014 4.88692 5.27287 5.27411C4.8856 5.6613 4.71019 6.08878 4.71019 6.64538C4.71019 7.18063 4.874 7.59837 5.23447 7.98261C5.61235 8.38534 6.0792 8.5847 6.64441 8.5847C7.96503 8.5847 8.87689 7.35991 8.50711 6.0828ZM7.42113 6.8036C7.26421 7.42967 6.50413 7.64521 6.07695 7.18481C5.9266 7.02272 5.86369 6.86362 5.86369 6.64538C5.86369 5.81263 6.98354 5.56218 7.35719 6.31135C7.42559 6.44851 7.45447 6.67069 7.42113 6.8036Z" fill="#A5A5A5"/>
</svg>
