<svg width="1311" height="365" viewBox="0 0 1311 365" fill="none" xmlns="http://www.w3.org/2000/svg">
<g clip-path="url(#clip0_1136_84)">
<rect width="1311" height="365" rx="20" fill="url(#paint0_linear_1136_84)" fill-opacity="0.5"/>
<g opacity="0.38">
<mask id="mask0_1136_84" style="mask-type:luminance" maskUnits="userSpaceOnUse" x="516" y="1" width="669" height="409">
<path d="M516 2.01917C525.712 3.56617 536.055 4.71336 547.118 5.37393C705.635 14.8379 732.025 77.1004 760.471 144.216C765.397 155.838 770.385 167.606 776.138 179.288C795.628 218.862 816.892 256.111 850.977 275.335C885.069 294.563 931.958 295.746 1002.67 263.166C1073.24 230.654 1119.32 223.059 1147.39 244.827C1175.47 266.604 1185.57 317.79 1184.15 402.83C1184.11 405.027 1184.09 407.205 1184.08 409.367L1184.5 409.367C1184.51 407.207 1184.53 405.032 1184.56 402.838C1185.98 317.66 1175.84 266.37 1147.64 244.501C1119.43 222.622 1073.21 230.209 1002.5 262.791C931.926 295.305 885.159 294.141 851.181 274.977C817.194 255.808 795.969 218.619 776.508 179.106C770.769 167.454 765.78 155.681 760.852 144.055C732.354 76.8169 705.917 14.441 547.142 4.96143C536.069 4.3004 525.717 3.15208 516 1.60156L516 2.01917L516 2.01917Z" fill="white"/>
</mask>
<g mask="url(#mask0_1136_84)">
<path d="M516.001 409.367L516 1.60156L1185.98 1.60153L1185.98 409.367L516.001 409.367Z" fill="url(#paint1_linear_1136_84)"/>
</g>
<mask id="mask1_1136_84" style="mask-type:luminance" maskUnits="userSpaceOnUse" x="516" y="-1" width="670" height="411">
<path d="M516 -0.454511C524.047 0.53697 532.511 1.25024 541.431 1.64552C700.077 8.66918 727.423 70.5188 756.9 137.19C762.005 148.735 767.174 160.426 773.106 172.015C793.204 211.285 815.04 248.203 849.416 266.9C883.799 285.601 930.701 286.062 1000.9 252.398C1070.96 218.803 1116.92 210.5 1145.32 231.835C1173.73 253.177 1184.62 304.202 1184.51 389.254C1184.5 396.132 1184.64 402.838 1184.9 409.372L1185.32 409.372C1185.05 402.84 1184.92 396.133 1184.93 389.255C1185.03 304.066 1174.1 252.938 1145.57 231.505C1117.03 210.063 1070.93 218.359 1000.72 252.026C930.665 285.622 883.886 285.177 849.615 266.538C815.336 247.894 793.54 211.036 773.472 171.827C767.554 160.264 762.384 148.57 757.278 137.022C727.747 70.2303 700.351 8.2688 541.45 1.23324C532.522 0.837962 524.052 0.122541 516 -0.871094L516 -0.454511L516 -0.454511Z" fill="white"/>
</mask>
<g mask="url(#mask1_1136_84)">
<path d="M516.001 409.372L516 -0.871094L1185.32 -0.871123L1185.32 409.372L516.001 409.372Z" fill="url(#paint2_linear_1136_84)"/>
</g>
<mask id="mask2_1136_84" style="mask-type:luminance" maskUnits="userSpaceOnUse" x="516" y="-4" width="671" height="414">
<path d="M516 -3.22574C522.365 -2.66036 528.952 -2.24967 535.834 -2.05079C694.569 2.53117 722.865 63.9526 753.366 130.161C758.651 141.633 764.003 153.25 770.106 164.734C790.807 203.69 813.208 240.267 847.87 258.433C882.538 276.603 929.441 276.343 999.116 241.602C1068.65 206.934 1114.48 197.926 1143.2 218.819C1171.94 239.723 1183.61 290.573 1184.81 375.617C1184.98 387.381 1185.55 398.643 1186.49 409.369L1186.91 409.369C1185.96 398.643 1185.39 387.38 1185.23 375.612C1184.02 290.431 1172.3 239.477 1143.44 218.486C1114.57 197.486 1068.61 206.49 998.931 241.233C929.396 275.904 882.617 276.179 848.063 258.068C813.502 239.954 791.14 203.436 770.471 164.54C764.368 153.057 759.021 141.451 753.741 129.989C723.184 63.6599 694.836 2.1258 535.847 -2.46352C528.959 -2.6624 522.368 -3.07389 516 -3.64062L516 -3.22574L516 -3.22574Z" fill="white"/>
</mask>
<g mask="url(#mask2_1136_84)">
<path d="M516.001 409.369L516 -3.64062L1186.91 -3.64065L1186.91 409.369L516.001 409.369Z" fill="url(#paint3_linear_1136_84)"/>
</g>
<mask id="mask3_1136_84" style="mask-type:luminance" maskUnits="userSpaceOnUse" x="516" y="-7" width="674" height="417">
<path d="M516 -6.2117C520.655 -5.9523 525.409 -5.76543 530.325 -5.69947C689.112 -3.56002 718.351 57.419 749.87 123.151C755.332 134.542 760.862 146.075 767.14 157.462C788.439 196.094 811.401 232.322 846.34 249.953C881.283 267.588 928.177 266.606 997.308 230.797C1066.3 195.064 1111.98 185.35 1141.02 205.8C1170.08 226.259 1182.53 276.924 1185.05 361.939C1185.55 378.835 1186.86 394.681 1188.91 409.378L1189.33 409.378C1187.28 394.68 1185.96 378.831 1185.46 361.928C1182.94 276.775 1170.44 226.008 1141.26 205.463C1112.07 184.909 1066.25 194.62 997.117 230.431C928.125 266.167 881.355 267.162 846.526 249.586C811.691 232.006 788.769 195.836 767.502 157.262C761.221 145.871 755.697 134.35 750.242 122.972C718.666 57.1206 689.373 -3.969 530.33 -6.11186C525.412 -6.17827 520.655 -6.3656 516 -6.625L516 -6.2117V-6.2117Z" fill="white"/>
</mask>
<g mask="url(#mask3_1136_84)">
<path d="M516 409.378L516 -6.625L1189.33 -6.62503L1189.33 409.378L516 409.378Z" fill="url(#paint4_linear_1136_84)"/>
</g>
<mask id="mask4_1136_84" style="mask-type:luminance" maskUnits="userSpaceOnUse" x="516" y="-10" width="677" height="420">
<path d="M516 -9.41483C518.921 -9.34536 521.886 -9.30978 524.906 -9.31533C683.707 -9.61973 713.882 50.9024 746.41 116.141C752.045 127.443 757.751 138.886 764.207 150.182C786.099 188.482 809.618 224.354 844.823 241.445C880.034 258.539 926.906 256.835 995.478 219.968C1063.91 183.177 1109.44 172.762 1138.79 192.763C1168.16 212.772 1181.39 263.24 1185.22 348.205C1186.22 370.53 1188.62 391 1192.24 409.382L1192.66 409.382C1189.04 391 1186.64 370.525 1185.63 348.187C1181.8 263.084 1168.51 212.515 1139.02 192.422C1109.52 172.319 1063.86 182.734 995.283 219.604C926.85 256.397 880.101 258.111 845.004 241.073C809.901 224.031 786.425 188.218 764.566 149.977C758.115 138.691 752.412 127.253 746.779 115.956C714.193 50.5988 683.962 -10.033 524.905 -9.72863C521.886 -9.72262 518.921 -9.75866 516 -9.82812L516 -9.41483L516 -9.41483Z" fill="white"/>
</mask>
<g mask="url(#mask4_1136_84)">
<path d="M516 409.38L516 -10.0352L1192.66 -10.0352L1192.66 409.38L516 409.38Z" fill="url(#paint5_linear_1136_84)"/>
</g>
<mask id="mask5_1136_84" style="mask-type:luminance" maskUnits="userSpaceOnUse" x="516" y="-14" width="681" height="424">
<path d="M516 -12.8993C517.195 -12.9075 518.365 -12.8963 519.576 -12.9174C678.353 -15.6647 709.458 44.3858 742.987 109.116C748.797 120.332 754.679 131.689 761.307 142.88C783.787 180.839 807.856 216.344 843.32 232.891C878.79 249.441 925.631 247.017 993.627 209.098C1061.48 171.259 1106.85 160.145 1136.5 179.692C1166.18 199.247 1180.19 249.504 1185.32 334.401C1187.02 362.526 1190.89 387.668 1196.57 409.367L1197 409.367C1191.31 387.673 1187.44 362.521 1185.73 334.377C1180.59 249.342 1166.53 198.984 1136.73 179.347C1106.92 159.701 1061.42 170.817 993.425 208.739C925.568 246.579 878.85 249.013 843.495 232.516C808.134 216.017 784.108 180.569 761.663 142.669C755.036 131.479 749.159 120.132 743.354 108.925C709.764 44.0768 678.602 -16.0825 519.569 -13.331C518.36 -13.31 517.193 -13.3211 516 -13.3125L516 -12.8993V-12.8993Z" fill="white"/>
</mask>
<g mask="url(#mask5_1136_84)">
<path d="M516 409.368L516 -16.082L1197 -16.0821L1197 409.368L516 409.368Z" fill="url(#paint6_linear_1136_84)"/>
</g>
<mask id="mask6_1136_84" style="mask-type:luminance" maskUnits="userSpaceOnUse" x="516" y="-18" width="687" height="428">
<path d="M516 -16.5075C673.263 -21.2232 705.202 38.1385 739.603 102.118C745.584 113.243 751.641 124.507 758.441 135.597C781.503 173.205 806.116 208.336 841.831 224.335C877.553 240.338 924.351 237.193 991.753 198.233C1059.02 159.355 1104.2 147.544 1134.16 166.632C1164.13 185.729 1178.91 235.764 1185.36 320.572C1187.97 354.973 1193.76 384.855 1202.08 409.375L1202.51 409.375C1194.18 384.865 1188.38 354.972 1185.77 320.541C1179.32 235.595 1164.48 185.459 1134.38 166.283C1104.27 147.098 1058.95 158.913 991.546 197.876C924.279 236.757 877.605 239.909 842.001 223.959C806.389 208.005 781.819 172.931 758.793 135.381C751.996 124.297 745.944 113.04 739.967 101.923C705.504 37.829 673.507 -21.6407 516 -16.9202L516 -16.5075Z" fill="white"/>
</mask>
<g mask="url(#mask6_1136_84)">
<path d="M516 409.372L516 -21.6445L1202.51 -21.6446L1202.51 409.372L516 409.372Z" fill="url(#paint7_linear_1136_84)"/>
</g>
<mask id="mask7_1136_84" style="mask-type:luminance" maskUnits="userSpaceOnUse" x="516" y="-22" width="694" height="432">
<path d="M516 -20.2795C668.755 -25.9078 701.262 32.3633 736.256 95.1089C742.407 106.138 748.635 117.306 755.607 128.292C779.247 165.541 804.398 200.289 840.355 215.738C876.319 231.189 923.063 227.325 989.857 187.332C1056.51 147.423 1101.51 134.918 1131.76 153.543C1162.02 172.176 1177.57 221.979 1185.32 306.678C1189.1 347.996 1197.37 382.709 1208.99 409.367L1209.44 409.367C1197.8 382.73 1189.52 348.002 1185.73 306.641C1177.97 221.805 1162.36 171.903 1131.98 153.193C1101.58 134.472 1056.44 146.983 989.644 186.978C922.985 226.889 876.365 230.76 840.519 215.359C804.666 199.955 779.559 165.263 755.956 128.072C748.99 117.096 742.764 105.932 736.616 94.9073C701.559 32.0483 668.994 -26.3274 516 -20.6931L516 -20.2795Z" fill="white"/>
</mask>
<g mask="url(#mask7_1136_84)">
<path d="M516 409.37L516 -26.3242L1209.44 -26.3242L1209.44 409.37L516 409.37Z" fill="url(#paint8_linear_1136_84)"/>
</g>
<mask id="mask8_1136_84" style="mask-type:luminance" maskUnits="userSpaceOnUse" x="516" y="-26" width="703" height="436">
<path d="M516 -24.1086C664.319 -30.551 697.39 26.6083 732.944 88.1123C739.264 99.0428 745.661 110.11 752.806 120.995C777.017 157.876 802.701 192.232 838.892 207.126C875.09 222.022 921.769 217.439 987.939 176.423C1053.97 135.494 1098.77 122.298 1129.3 140.454C1159.85 158.62 1176.17 208.177 1185.22 292.747C1190.48 341.903 1201.98 381.586 1217.72 409.37L1218.19 409.37C1202.42 381.629 1190.9 341.925 1185.63 292.704C1176.56 207.997 1160.19 158.342 1129.52 140.101C1098.83 121.851 1053.89 135.054 987.72 176.073C921.684 217.005 875.129 221.592 839.05 206.744C802.964 191.894 777.325 157.593 753.152 120.768C746.022 109.906 739.623 98.8375 733.303 87.9057C697.684 26.2902 664.554 -30.9715 516 -24.5219L516 -24.1086Z" fill="white"/>
</mask>
<g mask="url(#mask8_1136_84)">
<path d="M516 409.373L516 -30.9688L1218.19 -30.9688L1218.19 409.373L516 409.373Z" fill="url(#paint9_linear_1136_84)"/>
</g>
<mask id="mask9_1136_84" style="mask-type:luminance" maskUnits="userSpaceOnUse" x="516" y="-30" width="714" height="440">
<path d="M516 -28.0125C659.994 -35.1857 693.586 20.8671 729.673 81.1289C736.16 91.9625 742.729 102.932 750.039 113.702C774.815 150.206 801.025 184.163 837.441 198.498C873.864 212.835 920.467 207.535 985.998 165.506C1051.39 123.565 1095.98 109.681 1126.79 127.367C1157.61 145.06 1174.69 194.36 1185.05 278.781C1192.21 337.161 1207.98 382 1228.97 409.257L1229.07 409.383L1229.59 409.383L1229.3 409.004C1208.35 381.803 1192.61 337.034 1185.46 278.731C1175.09 194.174 1157.95 144.777 1127 127.009C1096.03 109.235 1051.31 123.128 985.774 165.159C920.376 207.102 873.898 212.405 837.593 198.114C801.282 183.82 775.118 149.918 750.38 113.47C743.082 102.717 736.514 91.7489 730.028 80.9171C693.876 20.5461 660.223 -35.6071 516 -28.4248L516 -28.0125Z" fill="white"/>
</mask>
<g mask="url(#mask9_1136_84)">
<path d="M516 409.377L516 -35.6133L1229.59 -35.6133L1229.59 409.377L516 409.377Z" fill="url(#paint10_linear_1136_84)"/>
</g>
<mask id="mask10_1136_84" style="mask-type:luminance" maskUnits="userSpaceOnUse" x="516" y="-34" width="730" height="444">
<path d="M516 -32.0226C655.776 -39.8483 689.848 15.1041 726.438 74.1233C733.09 84.8536 739.826 95.7193 747.303 106.378C772.639 142.497 799.37 176.047 836.003 189.82C872.642 203.596 919.158 197.578 984.032 154.546C1048.77 111.605 1093.15 97.0361 1124.22 114.246C1155.31 131.463 1173.15 180.495 1184.81 264.746C1192.87 323.008 1209.33 367.599 1230.74 394.531C1235.32 400.301 1240.14 405.261 1245.14 409.372L1245.8 409.372C1240.67 405.217 1235.75 400.171 1231.06 394.273C1209.7 367.397 1193.27 322.875 1185.21 264.689C1173.54 180.302 1155.64 131.174 1124.42 113.885C1093.19 96.5882 1048.68 111.168 983.803 154.203C919.061 197.147 872.669 203.164 836.148 189.434C799.621 175.701 772.938 142.205 747.641 106.142C740.18 95.5063 733.443 84.6379 726.789 73.9047C690.134 14.7788 656 -40.2727 516 -32.4364L516 -32.0226Z" fill="white"/>
</mask>
<g mask="url(#mask10_1136_84)">
<path d="M516 409.375L516 -40.2695L1245.8 -40.2696L1245.8 409.375L516 409.375Z" fill="url(#paint11_linear_1136_84)"/>
</g>
<mask id="mask11_1136_84" style="mask-type:luminance" maskUnits="userSpaceOnUse" x="516" y="-38" width="795" height="447">
<path d="M516 -36.0811C651.629 -44.4704 686.181 9.35765 723.24 67.1281C730.057 77.7538 736.958 88.5128 744.601 99.0584C770.491 134.783 797.736 167.918 834.575 181.125C871.424 194.336 917.842 187.603 982.045 143.579C1046.11 99.6462 1090.26 84.3969 1121.6 101.125C1152.95 117.862 1171.54 166.614 1184.49 250.676C1193.45 308.807 1210.6 353.14 1232.42 379.738C1244.48 394.446 1257.98 403.738 1272.32 406.95C1284.72 409.727 1297.74 407.957 1311 401.211L1311 400.747C1297.77 407.526 1284.77 409.317 1272.41 406.548C1258.17 403.357 1244.75 394.113 1232.74 379.476C1210.96 352.931 1193.85 308.668 1184.9 250.612C1171.93 166.415 1153.27 117.569 1121.79 100.762C1090.29 83.9474 1046.02 99.2104 981.81 143.238C917.736 187.174 871.443 193.904 834.716 180.737C797.982 167.567 770.785 134.486 744.935 98.8169C737.313 88.2996 730.409 77.5354 723.589 66.9051C686.463 9.02969 651.847 -44.8965 516 -36.4952L516 -36.0811Z" fill="white"/>
</mask>
<g mask="url(#mask11_1136_84)">
<path d="M516 409.729L516 -44.8945L1311 -44.8946L1311 409.729L516 409.729Z" fill="url(#paint12_linear_1136_84)"/>
</g>
<mask id="mask12_1136_84" style="mask-type:luminance" maskUnits="userSpaceOnUse" x="516" y="-42" width="795" height="435">
<path d="M516 -40.2071C647.584 -49.0886 682.582 3.61855 720.081 60.1407C727.066 70.6691 734.139 81.3291 741.931 91.7401C768.368 127.061 796.119 159.772 833.16 172.412C870.208 185.053 916.516 177.608 980.033 132.601C1043.42 87.687 1087.32 71.7609 1118.91 88.0059C1150.52 104.258 1169.86 152.717 1184.11 236.57C1193.96 294.555 1211.79 338.619 1234.02 364.88C1246.31 379.401 1259.95 388.484 1274.33 391.475C1286.17 393.936 1298.5 392.271 1311 386.121L1311 385.66C1298.53 391.842 1286.22 393.523 1274.42 391.07C1260.12 388.099 1246.56 379.063 1234.33 364.613C1212.15 338.408 1194.35 294.413 1184.52 236.501C1170.25 152.513 1150.84 103.958 1119.1 87.6384C1087.35 71.3106 1043.31 87.2539 979.793 132.264C916.403 177.181 870.219 184.622 833.294 172.022C796.363 159.419 768.659 126.76 742.262 91.4917C734.466 81.0764 727.402 70.4285 720.425 59.9129C682.857 3.28798 647.796 -49.5143 516 -40.6212L516 -40.2071Z" fill="white"/>
</mask>
<g mask="url(#mask12_1136_84)">
<path d="M516 393.938L516 -49.5117L1311 -49.5118L1311 393.938L516 393.938Z" fill="url(#paint13_linear_1136_84)"/>
</g>
<mask id="mask13_1136_84" style="mask-type:luminance" maskUnits="userSpaceOnUse" x="516" y="-45" width="795" height="422">
<path d="M569.711 -44.5156C654.831 -37.4169 685.007 6.55231 716.959 53.1402C724.107 63.561 731.344 74.1121 739.293 84.3991C766.271 119.31 794.524 151.59 831.756 163.658C868.993 175.728 915.181 167.571 977.997 121.592C1040.68 75.7084 1084.34 59.1089 1116.17 74.866C1148.03 90.6297 1168.11 138.786 1183.65 222.409C1194.39 280.237 1212.9 324.021 1235.53 349.936C1248.04 364.266 1261.82 373.139 1276.25 375.907C1287.54 378.073 1299.22 376.506 1311 370.896L1311 370.437C1299.24 376.077 1287.59 377.662 1276.33 375.502C1261.99 372.752 1248.29 363.924 1235.84 349.664C1213.26 323.803 1194.79 280.087 1184.06 222.334C1168.49 138.576 1148.34 90.3258 1116.36 74.4957C1084.36 58.6592 1040.57 75.2767 977.752 121.26C915.063 167.146 868.999 175.297 831.883 163.266C794.762 151.234 766.558 119.004 739.62 84.1457C731.664 73.8496 724.437 63.3127 717.3 52.9073C685.859 7.06579 656.134 -36.2437 574.305 -44.5156L569.711 -44.5156ZM516 -44.4235C516.457 -44.4565 516.904 -44.4839 517.358 -44.5156L516 -44.5156L516 -44.4235Z" fill="white"/>
</mask>
<g mask="url(#mask13_1136_84)">
<path d="M516.001 378.074L516 -44.5156L1311 -44.5157L1311 378.074L516.001 378.074Z" fill="url(#paint14_linear_1136_84)"/>
</g>
<mask id="mask14_1136_84" style="mask-type:luminance" maskUnits="userSpaceOnUse" x="598" y="-45" width="713" height="407">
<path d="M598.622 -44.5156C659.24 -30.9052 685.893 6.66881 713.874 46.1479C721.177 56.4525 728.573 66.8874 736.687 77.0588C764.2 111.551 792.948 143.393 830.36 154.886C867.779 166.382 913.836 157.515 975.935 110.575C1037.91 63.7321 1081.3 46.4626 1113.38 61.7277C1145.47 76.9996 1166.29 124.841 1183.12 208.216C1194.75 265.871 1213.93 309.365 1236.96 334.929C1249.69 349.065 1263.61 357.724 1278.08 360.271C1288.83 362.164 1299.89 360.679 1311 355.557L1311 355.102C1299.91 360.252 1288.88 361.752 1278.15 359.864C1263.77 357.334 1249.94 348.719 1237.26 334.652C1214.29 309.142 1195.14 265.716 1183.52 208.134C1166.67 124.625 1145.78 76.6909 1113.55 61.3551C1081.31 46.012 1037.79 63.3017 975.686 110.245C913.712 157.09 867.778 165.949 830.482 154.491C793.178 143.031 764.481 111.239 737.01 76.8002C728.901 66.6357 721.51 56.2072 714.211 45.9082C686.457 6.75028 660.019 -30.5447 600.57 -44.5156L598.622 -44.5156Z" fill="white"/>
</mask>
<g mask="url(#mask14_1136_84)">
<path d="M598.622 362.164L598.622 -44.5156L1311 -44.5157L1311 362.164L598.622 362.164Z" fill="url(#paint15_linear_1136_84)"/>
</g>
<mask id="mask15_1136_84" style="mask-type:luminance" maskUnits="userSpaceOnUse" x="613" y="-45" width="699" height="391">
<path d="M613.607 -44.5156C661.196 -28.6144 685.478 4.52856 710.829 39.1534C718.292 49.3457 725.848 59.6666 734.116 69.7093C762.156 103.773 791.391 135.169 828.977 146.086C866.569 157.005 912.484 147.43 973.852 99.5408C1035.09 51.75 1078.22 33.8148 1110.52 48.5848C1142.85 63.3613 1164.41 110.877 1182.52 193.983C1195.04 251.453 1214.88 294.646 1238.3 319.853C1251.25 333.791 1265.3 342.235 1279.81 344.558C1290.05 346.199 1300.52 344.788 1311 340.105L1311 339.652C1300.54 344.362 1290.09 345.788 1279.87 344.151C1265.46 341.843 1251.49 333.442 1238.61 319.571C1215.23 294.417 1195.43 251.29 1182.92 193.895C1164.78 110.655 1143.15 63.0474 1110.7 48.2097C1078.22 33.3642 1034.97 51.3219 973.598 99.215C912.353 147.009 866.561 156.573 829.093 145.69C791.618 134.806 762.434 103.459 734.435 69.4465C726.169 59.4056 718.619 49.0932 711.163 38.909C685.975 4.50714 661.839 -28.4343 614.943 -44.5156L613.607 -44.5156Z" fill="white"/>
</mask>
<g mask="url(#mask15_1136_84)">
<path d="M613.607 346.199L613.607 -44.5156L1311 -44.5157L1311 346.199L613.607 346.199Z" fill="url(#paint16_linear_1136_84)"/>
</g>
<mask id="mask16_1136_84" style="mask-type:luminance" maskUnits="userSpaceOnUse" x="623" y="-45" width="688" height="375">
<path d="M623.995 -44.5156C662.495 -27.7656 684.724 1.6119 707.819 32.1568C715.435 42.2294 723.146 52.4283 731.574 62.3513C760.138 95.9799 789.853 126.923 827.601 137.26C865.357 147.599 911.118 137.319 971.742 88.4908C1032.24 39.7638 1075.08 21.1667 1107.61 35.4373C1140.16 49.7148 1162.45 96.8934 1181.84 179.711C1195.24 236.98 1215.75 279.864 1239.56 304.707C1252.72 318.445 1266.89 326.672 1281.44 328.773C1291.19 330.181 1301.11 328.832 1311 324.541L1311 324.09C1301.13 328.407 1291.23 329.77 1281.49 328.364C1267.05 326.277 1252.95 318.092 1239.85 304.422C1216.1 279.631 1195.63 236.814 1182.24 179.617C1162.82 96.6664 1140.46 49.3977 1107.78 35.061C1075.08 20.7171 1032.11 39.3378 971.482 88.1694C910.981 136.9 865.343 147.167 827.711 136.862C790.072 126.555 760.408 95.6616 731.889 62.0844C723.476 52.1796 715.765 41.9809 708.149 31.9078C685.189 1.54243 663.085 -27.6704 625.065 -44.5156L623.995 -44.5156Z" fill="white"/>
</mask>
<g mask="url(#mask16_1136_84)">
<path d="M623.995 330.181L623.995 -44.5156L1311 -44.5157L1311 330.181L623.995 330.181Z" fill="url(#paint17_linear_1136_84)"/>
</g>
</g>
</g>
<defs>
<linearGradient id="paint0_linear_1136_84" x1="0" y1="182.5" x2="1311" y2="182.5" gradientUnits="userSpaceOnUse">
<stop stop-color="#3C236F"/>
<stop offset="0.47" stop-color="#292692"/>
<stop offset="1" stop-color="#6819E8"/>
</linearGradient>
<linearGradient id="paint1_linear_1136_84" x1="508.223" y1="24.766" x2="1381.54" y2="486.023" gradientUnits="userSpaceOnUse">
<stop stop-color="#0131B8"/>
<stop offset="0.47" stop-color="#FF00F6"/>
<stop offset="1" stop-color="#39D4FF"/>
</linearGradient>
<linearGradient id="paint2_linear_1136_84" x1="508.662" y1="23.939" x2="1381.98" y2="485.195" gradientUnits="userSpaceOnUse">
<stop stop-color="#0131B8"/>
<stop offset="0.47" stop-color="#FF00F6"/>
<stop offset="1" stop-color="#39D4FF"/>
</linearGradient>
<linearGradient id="paint3_linear_1136_84" x1="509.407" y1="22.5267" x2="1382.72" y2="483.782" gradientUnits="userSpaceOnUse">
<stop stop-color="#0131B8"/>
<stop offset="0.47" stop-color="#FF00F6"/>
<stop offset="1" stop-color="#39D4FF"/>
</linearGradient>
<linearGradient id="paint4_linear_1136_84" x1="510.288" y1="20.865" x2="1383.6" y2="482.121" gradientUnits="userSpaceOnUse">
<stop stop-color="#0131B8"/>
<stop offset="0.47" stop-color="#FF00F6"/>
<stop offset="1" stop-color="#39D4FF"/>
</linearGradient>
<linearGradient id="paint5_linear_1136_84" x1="511.356" y1="18.847" x2="1384.67" y2="480.104" gradientUnits="userSpaceOnUse">
<stop stop-color="#0131B8"/>
<stop offset="0.47" stop-color="#FF00F6"/>
<stop offset="1" stop-color="#39D4FF"/>
</linearGradient>
<linearGradient id="paint6_linear_1136_84" x1="513.075" y1="15.5795" x2="1386.39" y2="476.834" gradientUnits="userSpaceOnUse">
<stop stop-color="#0131B8"/>
<stop offset="0.47" stop-color="#FF00F6"/>
<stop offset="1" stop-color="#39D4FF"/>
</linearGradient>
<linearGradient id="paint7_linear_1136_84" x1="514.825" y1="12.2696" x2="1388.14" y2="473.526" gradientUnits="userSpaceOnUse">
<stop stop-color="#0131B8"/>
<stop offset="0.47" stop-color="#FF00F6"/>
<stop offset="1" stop-color="#39D4FF"/>
</linearGradient>
<linearGradient id="paint8_linear_1136_84" x1="516.546" y1="9.00991" x2="1389.86" y2="470.264" gradientUnits="userSpaceOnUse">
<stop stop-color="#0131B8"/>
<stop offset="0.47" stop-color="#FF00F6"/>
<stop offset="1" stop-color="#39D4FF"/>
</linearGradient>
<linearGradient id="paint9_linear_1136_84" x1="518.459" y1="5.38964" x2="1391.77" y2="466.645" gradientUnits="userSpaceOnUse">
<stop stop-color="#0131B8"/>
<stop offset="0.47" stop-color="#FF00F6"/>
<stop offset="1" stop-color="#39D4FF"/>
</linearGradient>
<linearGradient id="paint10_linear_1136_84" x1="520.661" y1="1.22522" x2="1393.98" y2="462.481" gradientUnits="userSpaceOnUse">
<stop stop-color="#0131B8"/>
<stop offset="0.47" stop-color="#FF00F6"/>
<stop offset="1" stop-color="#39D4FF"/>
</linearGradient>
<linearGradient id="paint11_linear_1136_84" x1="523.387" y1="-3.93852" x2="1396.7" y2="457.317" gradientUnits="userSpaceOnUse">
<stop stop-color="#0131B8"/>
<stop offset="0.47" stop-color="#FF00F6"/>
<stop offset="1" stop-color="#39D4FF"/>
</linearGradient>
<linearGradient id="paint12_linear_1136_84" x1="531.369" y1="-19.0533" x2="1404.68" y2="442.201" gradientUnits="userSpaceOnUse">
<stop stop-color="#0131B8"/>
<stop offset="0.47" stop-color="#FF00F6"/>
<stop offset="1" stop-color="#39D4FF"/>
</linearGradient>
<linearGradient id="paint13_linear_1136_84" x1="535.587" y1="-27.0336" x2="1408.9" y2="434.222" gradientUnits="userSpaceOnUse">
<stop stop-color="#0131B8"/>
<stop offset="0.47" stop-color="#FF00F6"/>
<stop offset="1" stop-color="#39D4FF"/>
</linearGradient>
<linearGradient id="paint14_linear_1136_84" x1="537.828" y1="-31.2865" x2="1411.15" y2="429.971" gradientUnits="userSpaceOnUse">
<stop stop-color="#0131B8"/>
<stop offset="0.47" stop-color="#FF00F6"/>
<stop offset="1" stop-color="#39D4FF"/>
</linearGradient>
<linearGradient id="paint15_linear_1136_84" x1="550.112" y1="-54.5449" x2="1423.43" y2="406.71" gradientUnits="userSpaceOnUse">
<stop stop-color="#0131B8"/>
<stop offset="0.47" stop-color="#FF00F6"/>
<stop offset="1" stop-color="#39D4FF"/>
</linearGradient>
<linearGradient id="paint16_linear_1136_84" x1="555.043" y1="-63.8782" x2="1428.36" y2="397.376" gradientUnits="userSpaceOnUse">
<stop stop-color="#0131B8"/>
<stop offset="0.47" stop-color="#FF00F6"/>
<stop offset="1" stop-color="#39D4FF"/>
</linearGradient>
<linearGradient id="paint17_linear_1136_84" x1="559.482" y1="-72.2849" x2="1432.8" y2="388.972" gradientUnits="userSpaceOnUse">
<stop stop-color="#0131B8"/>
<stop offset="0.47" stop-color="#FF00F6"/>
<stop offset="1" stop-color="#39D4FF"/>
</linearGradient>
<clipPath id="clip0_1136_84">
<rect width="1311" height="365" rx="20" fill="white"/>
</clipPath>
</defs>
</svg>
