<svg width="40" height="40" viewBox="0 0 40 40" fill="none" xmlns="http://www.w3.org/2000/svg">
<path fill-rule="evenodd" clip-rule="evenodd" d="M0.592642 0.136873C0.44501 0.21195 0.251272 0.372651 0.162114 0.493978C0.00524463 0.707412 0 0.805614 0 3.51558C0 6.22554 0.00524463 6.32374 0.162114 6.53718C0.516791 7.01967 0.593347 7.03092 3.5225 7.03092C5.90176 7.03092 6.21245 7.01647 6.45237 6.89428C6.94035 6.64601 7.04172 6.41812 7.0717 5.50227L7.0984 4.68744L9.45918 4.6915C11.7043 4.69541 11.8105 4.70212 11.6263 4.82822C9.29785 6.42288 7.59139 8.36879 6.38301 10.8074C5.60658 12.3741 5.02818 14.3826 4.85432 16.1152L4.80117 16.6447L4.33143 16.8813C1.81245 18.1504 1.73409 21.6478 4.1928 23.0671C6.48125 24.3881 9.43249 22.6604 9.43249 19.9997C9.43249 18.7195 8.63327 17.4152 7.51875 16.8767C7.13276 16.6902 7.1492 16.7968 7.32626 15.6248C7.84063 12.2208 9.80705 9.06894 12.6792 7.04483C13.4755 6.48366 14.994 5.72016 15.8513 5.44993C16.9331 5.10892 16.8867 5.10954 17.061 5.43282C17.2441 5.7725 17.9526 6.43515 18.3469 6.63561C19.3692 7.15522 20.6308 7.15522 21.6531 6.63561C22.0474 6.43515 22.7559 5.7725 22.939 5.43282C23.1133 5.10954 23.0669 5.10892 24.1487 5.44993C25.006 5.72016 26.5245 6.48366 27.3208 7.04483C30.193 9.06894 32.1594 12.2208 32.6737 15.6248C32.8508 16.7968 32.8672 16.6902 32.4813 16.8767C31.3697 17.4138 30.5675 18.7198 30.5675 19.9925C30.5675 22.7426 33.6569 24.449 35.9626 22.9723C38.2803 21.488 38.1175 18.1151 35.6686 16.8813L35.1988 16.6447L35.1457 16.1152C35.0482 15.1432 34.7325 13.7022 34.3945 12.6856C33.4281 9.77948 31.5379 7.18201 29.0411 5.32907C28.6106 5.00962 28.2436 4.73455 28.2257 4.71783C28.2077 4.70111 29.2525 4.68744 30.5473 4.68744H32.9016L32.9283 5.50227C32.9583 6.41812 33.0596 6.64601 33.5476 6.89428C33.7876 7.01647 34.0982 7.03092 36.4775 7.03092C39.4067 7.03092 39.4832 7.01967 39.8379 6.53718C39.9948 6.32374 40 6.22554 40 3.51558C40 0.805614 39.9948 0.707412 39.8379 0.493978C39.4832 0.0114842 39.4067 0.000234372 36.4775 0.000234372C34.0982 0.000234372 33.7876 0.0146873 33.5476 0.136873C33.0596 0.385151 32.9583 0.613039 32.9283 1.52889L32.9016 2.34372H28.1086H23.3156L23.14 1.95583C22.6257 0.820145 21.309 0 20 0C18.691 0 17.3743 0.820145 16.86 1.95583L16.6844 2.34372H11.8914H7.0984L7.0717 1.52889C7.04172 0.613039 6.94035 0.385151 6.45237 0.136873C6.21245 0.0146873 5.90176 0.000234372 3.5225 0.000234372C1.14325 0.000234372 0.832564 0.0146873 0.592642 0.136873ZM14.1432 17.2459C11.469 21.2507 9.49229 24.2855 9.46364 24.4305C9.36579 24.9257 9.48384 25.1733 10.2214 26.0211C11.9414 27.9975 13.0909 30.2219 13.6578 32.6701L13.829 33.4099L14.4495 33.2305C15.4766 32.9335 16.1843 32.8902 20 32.8902C23.8157 32.8902 24.5234 32.9335 25.5505 33.2305L26.171 33.4099L26.3422 32.6701C26.9091 30.2219 28.0586 27.9975 29.7786 26.0211C30.5378 25.1485 30.6546 24.8882 30.5159 24.3778C30.4575 24.1628 21.5339 10.6685 21.2431 10.3553C21.2033 10.3125 21.1742 12.6358 21.1742 15.8475V21.4139L21.4336 21.5221C21.8049 21.6769 22.4557 22.1821 22.7336 22.5311C23.8245 23.9011 23.7058 25.8982 22.4596 27.1419C21.7836 27.8165 20.9802 28.1438 20 28.1438C16.6644 28.1438 15.2432 23.9278 17.9057 21.9312C18.1264 21.7657 18.4237 21.5816 18.5664 21.5221L18.8258 21.4139V15.8631C18.8258 12.8102 18.8139 10.3124 18.7995 10.3124C18.7849 10.3124 16.6896 13.4325 14.1432 17.2459ZM19.4576 23.6477C19.0818 23.8452 18.8877 24.1441 18.8497 24.5837C18.7902 25.273 19.211 25.7763 19.8964 25.8352C20.587 25.8946 21.0913 25.4746 21.1503 24.7906C21.1879 24.3544 21.0205 23.966 20.6907 23.7248C20.3944 23.508 19.7948 23.4705 19.4576 23.6477ZM15.3316 35.3823C13.9539 35.7758 12.8926 36.6638 12.2467 37.9632C11.8955 38.67 11.8691 38.971 12.1206 39.3994C12.4971 40.0406 11.9567 39.9995 20 39.9995C28.0433 39.9995 27.5029 40.0406 27.8794 39.3994C28.1309 38.971 28.1045 38.67 27.7533 37.9632C27.0938 36.6363 25.9709 35.7177 24.568 35.3574C24.1577 35.252 23.4793 35.2347 19.9496 35.2395C16.2481 35.2445 15.7615 35.2595 15.3316 35.3823Z" fill="#7C7C7C"/>
</svg>
