<svg width="14" height="13" viewBox="0 0 14 13" fill="none" xmlns="http://www.w3.org/2000/svg">
<path fill-rule="evenodd" clip-rule="evenodd" d="M1.57794 3.03849C1.34768 3.10078 1.06891 3.41242 1.02425 3.65741C0.943909 4.09825 0.89145 4.03466 3.84693 7.07727C6.27729 9.57927 6.60891 9.90296 6.7928 9.9527C7.2578 10.0785 7.1389 10.1803 10.1531 7.07727C13.1085 4.03466 13.0561 4.09825 12.9757 3.65741C12.929 3.40093 12.6549 3.10319 12.4054 3.03799C12.2952 3.00918 12.1802 2.99332 12.1498 3.0027C12.1195 3.01209 12.0288 3.03432 11.9484 3.05214C11.8394 3.07628 11.191 3.71272 9.40106 5.55273L7 8.02094L4.59894 5.55273C2.81484 3.7187 2.16028 3.07608 2.05162 3.05169C1.97117 3.03362 1.87245 3.01219 1.83223 3.00411C1.79201 2.99603 1.67759 3.01149 1.57794 3.03849Z" fill="white"/>
</svg>
